<svg width="89" height="87" viewBox="0 0 89 87" fill="none" xmlns="http://www.w3.org/2000/svg">
<path d="M30.7093 16.5527H23.0605V7.16404C23.0605 6.73329 23.4336 6.38416 23.8939 6.38416H30.7093V16.5527Z" fill="#E1E1E1"/>
<path d="M33.5951 7.64625L28.3118 7.62344L12.8832 7.55715L11.0251 7.54872L6.40132 7.52898C4.1048 7.51902 2.23479 9.24894 2.22516 11.392L1.94321 73.6174C1.93359 75.7593 3.786 77.5033 6.08109 77.5132L33.2749 77.6303C35.5708 77.6403 37.4408 75.9109 37.4506 73.7677L37.7326 11.5418C37.7422 9.39993 35.8902 7.65602 33.5951 7.64625Z" fill="#F5F5F5"/>
<path d="M32.1903 16.6627C32.1903 16.7235 26.4468 16.7727 19.3637 16.7727C12.2776 16.7727 6.53589 16.7235 6.53589 16.6627C6.53589 16.6018 12.2776 16.5528 19.3637 16.5528C26.4468 16.5528 32.1903 16.6018 32.1903 16.6627Z" fill="#E1E1E1"/>
<path d="M33.1502 21.3663H6.242V19.6818H33.1502V21.3663Z" fill="#E1E1E1"/>
<path d="M32.1903 26.3139C32.1903 26.3744 26.4468 26.4239 19.3637 26.4239C12.2776 26.4239 6.53589 26.3744 6.53589 26.3139C6.53589 26.253 12.2776 26.2035 19.3637 26.2035C26.4468 26.2035 32.1903 26.253 32.1903 26.3139Z" fill="#E1E1E1"/>
<path d="M32.1903 29.3801C32.1903 29.4412 26.4468 29.4902 19.3637 29.4902C12.2776 29.4902 6.53589 29.4412 6.53589 29.3801C6.53589 29.3195 12.2776 29.2703 19.3637 29.2703C26.4468 29.2703 32.1903 29.3195 32.1903 29.3801Z" fill="#E1E1E1"/>
<path d="M32.1903 32.4468C32.1903 32.5073 26.4468 32.5566 19.3637 32.5566C12.2776 32.5566 6.53589 32.5073 6.53589 32.4468C6.53589 32.3856 12.2776 32.3366 19.3637 32.3366C26.4468 32.3366 32.1903 32.3856 32.1903 32.4468Z" fill="#E1E1E1"/>
<path d="M32.1903 35.513C32.1903 35.5736 26.4468 35.6232 19.3637 35.6232C12.2776 35.6232 6.53589 35.5736 6.53589 35.513C6.53589 35.4523 12.2776 35.4028 19.3637 35.4028C26.4468 35.4028 32.1903 35.4523 32.1903 35.513Z" fill="#E1E1E1"/>
<path d="M32.1903 38.5792C32.1903 38.6403 26.4468 38.6894 19.3637 38.6894C12.2776 38.6894 6.53589 38.6403 6.53589 38.5792C6.53589 38.5186 12.2776 38.4694 19.3637 38.4694C26.4468 38.4694 32.1903 38.5186 32.1903 38.5792Z" fill="#E1E1E1"/>
<path d="M32.5574 42.0561C32.5574 42.1168 26.8138 42.1665 19.7307 42.1665C12.645 42.1665 6.90271 42.1168 6.90271 42.0561C6.90271 41.9955 12.645 41.9459 19.7307 41.9459C26.8138 41.9459 32.5574 41.9955 32.5574 42.0561Z" fill="#E1E1E1"/>
<path d="M33.5429 72.1438H6.56696V47.7195H33.5429V72.1438Z" fill="#ECECEC"/>
<path d="M24.8246 55.0402C24.8246 56.0435 23.9552 56.8569 22.8831 56.8569C21.811 56.8569 20.9417 56.0435 20.9417 55.0402C20.9417 54.0369 21.811 53.2237 22.8831 53.2237C23.9552 53.2237 24.8246 54.0369 24.8246 55.0402Z" fill="#E1E1E1"/>
<path d="M31.4579 49.6325C24.8565 49.6279 17.0316 49.6219 8.66738 49.6156C8.69256 49.5886 8.42229 49.8448 8.53654 49.7396V49.7448V49.7559V49.7777V49.821V49.9084V50.0828L8.53695 50.4306V51.1242V52.5029C8.53736 53.4183 8.53736 54.325 8.53777 55.2225C8.53859 57.0172 8.54002 58.7747 8.54084 60.4857C8.54534 63.9061 8.54964 67.1402 8.55333 70.115V70.2204L8.66533 70.2198C15.4978 70.198 21.2049 70.1796 25.2168 70.1668C27.1976 70.1551 28.7597 70.1457 29.8398 70.1394C30.3606 70.1342 30.765 70.1298 31.0509 70.1271C31.1793 70.1246 31.2798 70.1227 31.3582 70.1212C31.4266 70.1192 31.4602 70.1169 31.4579 70.1154L25.9333 61.252L22.2245 65.5179L16.1206 57.4848L8.77733 70.0049C8.78081 67.0601 8.78531 63.8643 8.78961 60.4857C8.79043 58.7747 8.79125 57.0172 8.79269 55.2225C8.7931 54.325 8.79309 53.4183 8.79371 52.5029V51.1242V50.4306V50.0828V49.9084V49.8561C17.0643 49.85 24.803 49.844 31.348 49.8392C31.3713 55.8924 31.3906 60.936 31.4041 64.4834C31.4166 66.2618 31.4262 67.6627 31.4327 68.6311C31.4385 69.1037 31.4426 69.4704 31.4454 69.7303C31.4483 69.8489 31.4503 69.942 31.4518 70.015C31.454 70.0796 31.4563 70.1133 31.4579 70.1154C31.4602 70.1169 31.4622 70.0872 31.4641 70.0267C31.4659 69.9562 31.4675 69.8669 31.4704 69.7531C31.4735 69.4976 31.4778 69.1378 31.4831 68.6737C31.4897 67.7106 31.4999 66.3176 31.5118 64.5489C31.5255 60.9657 31.5447 55.8627 31.5683 49.7361L31.5687 49.6327L31.4579 49.6325Z" fill="#E1E1E1"/>
<path d="M33.2803 7.4334C33.2826 6.85452 32.782 6.3841 32.1634 6.3841H30.8681H24.3977C25.0146 6.3841 25.5146 6.85222 25.5146 7.42938V17.6319L29.4046 15.5846L33.2945 17.4494C33.2945 17.4494 33.2691 10.195 33.2803 7.4334" fill="#ECECEC"/>
<path d="M29.6509 10.2016L29.9218 10.7154C29.9445 10.7581 29.9881 10.7878 30.0387 10.7947L30.6444 10.8771C30.7715 10.8943 30.8223 11.0405 30.7301 11.1245L30.292 11.5244C30.2553 11.5577 30.2387 11.6058 30.2473 11.6528L30.3507 12.2175C30.3724 12.3359 30.2396 12.4263 30.1259 12.3704L29.5841 12.1038C29.5389 12.0816 29.4848 12.0816 29.4398 12.1038L28.898 12.3704C28.7844 12.4263 28.6513 12.3359 28.673 12.2175L28.7764 11.6528C28.7852 11.6058 28.7684 11.5577 28.7319 11.5244L28.2936 11.1245C28.2016 11.0405 28.2524 10.8943 28.3796 10.8771L28.9854 10.7947C29.0358 10.7878 29.0794 10.7581 29.1019 10.7154L29.373 10.2016C29.4298 10.094 29.5942 10.094 29.6509 10.2016Z" fill="white"/>
<path d="M75.1398 16.0442H67.491V6.65553C67.491 6.22477 67.864 5.87565 68.3243 5.87565H75.1398V16.0442Z" fill="#E1E1E1"/>
<path d="M78.0255 7.13764L72.7423 7.11503L57.3136 7.04854L55.4555 7.0403L50.8317 7.02037C48.5352 7.0106 46.6652 8.74033 46.6556 10.8836L46.3736 73.1088C46.364 75.2509 48.2164 76.9946 50.5115 77.0046L77.7053 77.1219C80.0012 77.1318 81.8712 75.4023 81.881 73.2591L82.1628 11.0334C82.1726 8.89132 80.3206 7.14761 78.0255 7.13764Z" fill="#F5F5F5"/>
<path d="M76.6208 16.1542C76.6208 16.215 70.877 16.2642 63.794 16.2642C56.7078 16.2642 50.9661 16.215 50.9661 16.1542C50.9661 16.0933 56.7078 16.0443 63.794 16.0443C70.877 16.0443 76.6208 16.0933 76.6208 16.1542Z" fill="#E1E1E1"/>
<path d="M77.5804 20.8578H50.6724V19.1731H77.5804V20.8578Z" fill="#E1E1E1"/>
<path d="M76.6208 25.8053C76.6208 25.866 70.877 25.9153 63.794 25.9153C56.7078 25.9153 50.9661 25.866 50.9661 25.8053C50.9661 25.7443 56.7078 25.6951 63.794 25.6951C70.877 25.6951 76.6208 25.7443 76.6208 25.8053Z" fill="#E1E1E1"/>
<path d="M76.6208 28.8715C76.6208 28.9326 70.877 28.9817 63.794 28.9817C56.7078 28.9817 50.9661 28.9326 50.9661 28.8715C50.9661 28.8108 56.7078 28.7617 63.794 28.7617C70.877 28.7617 76.6208 28.8108 76.6208 28.8715Z" fill="#E1E1E1"/>
<path d="M76.6208 31.9382C76.6208 31.9989 70.877 32.048 63.794 32.048C56.7078 32.048 50.9661 31.9989 50.9661 31.9382C50.9661 31.8772 56.7078 31.828 63.794 31.828C70.877 31.828 76.6208 31.8772 76.6208 31.9382Z" fill="#E1E1E1"/>
<path d="M76.6208 35.0044C76.6208 35.0651 70.877 35.1146 63.794 35.1146C56.7078 35.1146 50.9661 35.0651 50.9661 35.0044C50.9661 34.9439 56.7078 34.8942 63.794 34.8942C70.877 34.8942 76.6208 34.9439 76.6208 35.0044Z" fill="#E1E1E1"/>
<path d="M76.6208 38.0707C76.6208 38.1318 70.877 38.1809 63.794 38.1809C56.7078 38.1809 50.9661 38.1318 50.9661 38.0707C50.9661 38.0101 56.7078 37.9609 63.794 37.9609C70.877 37.9609 76.6208 38.0101 76.6208 38.0707Z" fill="#E1E1E1"/>
<path d="M76.9877 41.5476C76.9877 41.6083 71.244 41.6577 64.1609 41.6577C57.0754 41.6577 51.3331 41.6083 51.3331 41.5476C51.3331 41.487 57.0754 41.4374 64.1609 41.4374C71.244 41.4374 76.9877 41.487 76.9877 41.5476Z" fill="#E1E1E1"/>
<path d="M77.9733 71.6351H50.9974V47.2107H77.9733V71.6351Z" fill="#ECECEC"/>
<path d="M69.2549 54.5316C69.2549 55.5349 68.3857 56.3485 67.3136 56.3485C66.2413 56.3485 65.3721 55.5349 65.3721 54.5316C65.3721 53.5283 66.2413 52.7151 67.3136 52.7151C68.3857 52.7151 69.2549 53.5283 69.2549 54.5316Z" fill="#E1E1E1"/>
<path d="M75.8884 49.124C69.2871 49.1192 61.4623 49.1135 53.0979 49.107C53.1231 49.0801 52.8526 49.3361 52.967 49.2309V49.2363V49.2472V49.2691V49.3124V49.3998V49.5741L52.9674 49.9219V50.6156V51.9943C52.9679 52.9096 52.9679 53.8164 52.9685 54.7139C52.9691 56.5086 52.9703 58.2661 52.9713 59.977C52.9758 63.3974 52.9801 66.6315 52.9838 69.6064V69.7118L53.0958 69.7114C59.9283 69.6896 65.6354 69.6712 69.6473 69.6581C71.6279 69.6464 73.1902 69.6372 74.2705 69.6309C74.7911 69.6256 75.1955 69.6213 75.4814 69.6185C75.6097 69.616 75.7103 69.6141 75.7889 69.6125C75.8571 69.6106 75.8907 69.6083 75.8884 69.6068L70.3637 60.7435L66.655 65.0095L60.5511 56.9761L53.2078 69.4962C53.2113 66.5514 53.2158 63.3556 53.2201 59.977C53.2209 58.2661 53.222 56.5086 53.2232 54.7139C53.2236 53.8164 53.2236 52.9096 53.2242 51.9943V50.6156V49.9219V49.5741V49.3998V49.3476C61.4946 49.3415 69.2333 49.3356 75.7787 49.3306C75.8018 55.3838 75.8211 60.4275 75.8346 63.9748C75.8471 65.7532 75.8567 67.1541 75.8632 68.1225C75.869 68.5952 75.8731 68.9618 75.8759 69.2218C75.8786 69.3404 75.881 69.4334 75.8823 69.5064C75.8843 69.5711 75.8866 69.6049 75.8884 69.6068C75.8907 69.6083 75.8927 69.5788 75.8946 69.5181C75.8964 69.4475 75.8982 69.3584 75.9009 69.2444C75.9038 68.9892 75.9083 68.6291 75.9136 68.165C75.9202 67.202 75.9302 65.8089 75.9423 64.0405C75.956 60.457 75.9754 55.3541 75.9988 49.2275L75.9992 49.1242L75.8884 49.124Z" fill="#E1E1E1"/>
<path d="M77.7108 6.92488C77.7131 6.34601 77.2122 5.87559 76.5939 5.87559H75.2986H68.8282C69.4451 5.87559 69.9451 6.34352 69.9451 6.92086V17.1233L73.835 15.0761L77.7249 16.9409C77.7249 16.9409 77.6994 9.68647 77.7108 6.92488" fill="#ECECEC"/>
<path d="M74.0814 9.69313L74.3521 10.2069C74.3748 10.2496 74.4184 10.2793 74.469 10.2862L75.0749 10.3686C75.202 10.3858 75.2526 10.532 75.1607 10.616L74.7223 11.0159C74.6856 11.0492 74.669 11.0973 74.6776 11.1443L74.7812 11.7089C74.8027 11.8274 74.6701 11.9178 74.5562 11.8619L74.0144 11.5953C73.9692 11.5731 73.9153 11.5731 73.8703 11.5953L73.3283 11.8619C73.2147 11.9178 73.0818 11.8274 73.1035 11.7089L73.2069 11.1443C73.2155 11.0973 73.1987 11.0492 73.1625 11.0159L72.7241 10.616C72.6319 10.532 72.6827 10.3858 72.8099 10.3686L73.4157 10.2862C73.4661 10.2793 73.5099 10.2496 73.5322 10.2069L73.8033 9.69313C73.8603 9.58525 74.0245 9.58525 74.0814 9.69313Z" fill="white"/>
<path d="M76.5696 13.8869L76.1013 13.1647C72.1541 7.07723 65.0172 3.40776 57.4927 3.85308C56.5252 3.91018 55.5622 4.03282 54.6122 4.22309C47.7707 5.59354 41.8179 10.4351 39.3504 16.6359C37.8994 20.2825 37.4939 24.4815 34.7402 27.376C31.1562 31.143 25.0715 31.2615 19.7219 31.1053C14.3725 30.9491 8.28394 31.0823 4.71733 34.8644C2.48367 37.2328 1.7738 40.6013 1.95398 43.7733C2.43085 52.1715 8.68403 59.6808 16.6365 63.4131C24.5889 67.1457 33.9519 67.48 42.6556 65.8381C54.8481 63.5381 66.4431 57.2214 73.4125 47.4652C80.3819 37.7088 82.1459 24.4171 76.5696 13.8869Z" fill="#ECECEC"/>
<path d="M69.4716 32.1039L71.1819 29.2831C70.4252 28.1337 69.9878 26.7809 69.9878 25.3319C69.9878 21.165 73.5974 17.7872 78.05 17.7872C82.5026 17.7872 86.112 21.165 86.112 25.3319C86.112 29.4988 82.5026 32.8766 78.05 32.8766C76.1906 32.8766 74.4799 32.2861 73.116 31.2968L73.1187 31.3L69.4716 32.1039Z" fill="white"/>
<path d="M69.4716 32.1039C69.6559 32.0619 70.7994 31.8019 73.1128 31.2759L73.0976 31.3152L73.0949 31.3117C73.0859 31.301 73.0882 31.2853 73.0999 31.277C73.1097 31.2699 73.123 31.2703 73.1324 31.277C73.5919 31.6055 74.1408 31.9287 74.7848 32.1974C75.4295 32.4614 76.1671 32.6762 76.9804 32.7745C77.3862 32.8215 77.8104 32.8514 78.2457 32.8301C78.4632 32.8178 78.6847 32.8123 78.9081 32.7941C79.1297 32.7621 79.3547 32.7297 79.5824 32.6967C80.4857 32.5271 81.4086 32.2041 82.2685 31.702C83.1281 31.2019 83.9234 30.524 84.5603 29.6922C85.1965 28.8617 85.6781 27.8781 85.9031 26.8099C86.1259 25.7431 86.106 24.5995 85.8063 23.4939C85.5045 22.3919 84.9416 21.3154 84.0988 20.4298L83.7737 20.0948C83.6668 19.9821 83.5392 19.8894 83.4236 19.7861C83.3021 19.6884 83.193 19.5776 83.0626 19.4914L82.6805 19.2239C82.5568 19.13 82.4203 19.0547 82.2847 18.9788L81.8809 18.7491C81.7397 18.6849 81.5988 18.6207 81.4581 18.5567C81.3164 18.4956 81.1801 18.423 81.0312 18.3791C79.875 17.9487 78.6413 17.7843 77.4613 17.863C76.2813 17.9414 75.1517 18.2566 74.1818 18.7658C73.2088 19.2707 72.3871 19.9455 71.7522 20.7001C71.115 21.4551 70.6649 22.2883 70.385 23.1187C70.1068 23.9532 70.0294 24.7816 70.029 25.5494C70.0689 27.0959 70.6154 28.3698 71.2036 29.2706C71.2085 29.2781 71.2083 29.2877 71.204 29.2949C70.0996 31.0854 69.5623 31.9567 69.4716 32.1039C69.5601 31.9555 70.0834 31.077 71.1596 29.2714L71.16 29.2957C70.5611 28.3934 70.0025 27.112 69.955 25.5515C69.952 24.7768 70.0271 23.9398 70.3054 23.0957C70.5855 22.2557 71.038 21.4122 71.6803 20.6472C72.3208 19.8827 73.1506 19.1982 74.1345 18.6857C75.1153 18.1687 76.2588 17.8479 77.454 17.7672C78.6485 17.6862 79.8985 17.8519 81.0705 18.2873C81.2214 18.3317 81.3596 18.4051 81.5034 18.4672C81.6457 18.532 81.7886 18.5969 81.9317 18.6619C82.0679 18.7393 82.2044 18.8169 82.3412 18.8945C82.4784 18.9714 82.6166 19.0478 82.7421 19.1427L83.1293 19.4136C83.2614 19.5012 83.3722 19.6133 83.495 19.7122C83.6125 19.817 83.7415 19.9111 83.8501 20.0251L84.1795 20.3642C85.0331 21.2618 85.6036 22.353 85.9087 23.4698C86.2119 24.5905 86.2309 25.7483 86.0039 26.8286C85.7749 27.9105 85.2854 28.9061 84.6402 29.7456C83.994 30.5866 83.1877 31.2711 82.3169 31.7752C81.4456 32.2809 80.5117 32.6055 79.5983 32.7741C79.368 32.8065 79.1409 32.8387 78.9167 32.8703C78.6911 32.888 78.4675 32.8929 78.2476 32.9046C77.808 32.9248 77.38 32.8929 76.9703 32.8441C76.1499 32.7418 75.4068 32.5218 74.7584 32.2526C74.1107 31.9787 73.5597 31.6499 73.0999 31.3163L73.1371 31.2816L73.14 31.2851C73.1488 31.2958 73.1467 31.3113 73.1353 31.3198C73.1322 31.3219 73.1283 31.3234 73.1248 31.3244C70.804 31.8195 69.6565 32.0644 69.4716 32.1039Z" fill="#1A2E35"/>
<path d="M76.4611 21.7614H75.5997C75.1881 21.7614 74.8552 22.0741 74.8568 22.4593C74.8642 24.2957 74.8474 26.9002 74.8474 26.9002L80.0213 26.8295V22.4566C80.0213 22.0726 80.3539 21.7614 80.764 21.7614H76.4611Z" fill="#FF735D"/>
<g opacity="0.300003">
<g opacity="0.300003">
<path opacity="0.300003" d="M76.4611 21.7614H75.5997C75.1881 21.7614 74.8552 22.0741 74.8568 22.4593C74.8642 24.2957 74.8474 26.9002 74.8474 26.9002L80.0213 26.8295V22.4566C80.0213 22.0726 80.3539 21.7614 80.764 21.7614H76.4611Z" fill="black"/>
</g>
</g>
<path d="M81.3681 22.457C81.3698 22.0721 81.0367 21.7615 80.6253 21.7615H79.7639H75.461C75.8711 21.7615 76.2036 22.0727 76.2036 22.4567V28.905C76.2036 29.0556 76.3769 29.1502 76.5171 29.0765L78.7907 27.88L81.0704 28.9728C81.2105 29.0401 81.377 28.9452 81.3765 28.7978C81.3729 27.6876 81.3618 24.0059 81.3681 22.457Z" fill="#FF735D"/>
<path d="M78.7871 24.2445L78.9765 24.6036C78.9923 24.6334 79.0228 24.6541 79.058 24.6589L79.4817 24.7166C79.5703 24.7287 79.606 24.8308 79.5417 24.8894L79.2351 25.169C79.2096 25.1922 79.1981 25.2259 79.204 25.2587L79.2765 25.6534C79.2915 25.7362 79.1987 25.7994 79.1191 25.7603L78.7405 25.5739C78.7089 25.5584 78.6713 25.5584 78.6395 25.5739L78.2609 25.7603C78.1815 25.7994 78.0885 25.7362 78.1037 25.6534L78.1762 25.2587C78.1821 25.2259 78.1704 25.1922 78.1448 25.169L77.8385 24.8894C77.7742 24.8308 77.8099 24.7287 77.8985 24.7166L78.3219 24.6589C78.3572 24.6541 78.3879 24.6334 78.4036 24.6036L78.5928 24.2445C78.6326 24.1692 78.7476 24.1692 78.7871 24.2445Z" fill="white"/>
<path d="M40.901 10.1686H33.2523V0.779941C33.2523 0.349185 33.6253 5.78968e-05 34.0856 5.78968e-05H40.901V10.1686Z" fill="#FF735D"/>
<g opacity="0.300003">
<g opacity="0.300003">
<path opacity="0.300003" d="M40.901 10.1686H33.2523V0.772468C33.2523 0.345928 33.6218 5.78968e-05 34.0776 5.78968e-05H40.901V10.1686Z" fill="black"/>
</g>
</g>
<path d="M43.7868 1.26205L38.5035 1.23943L23.0749 1.17295L21.2167 1.16471L16.593 1.14478C14.2965 1.135 12.4264 2.86474 12.4168 5.00778L12.1349 67.2332C12.1252 69.3751 13.9776 71.1191 16.2727 71.129L43.4665 71.2463C45.7624 71.2563 47.6324 69.5267 47.6423 67.3835L47.924 5.15782C47.9338 3.01573 46.0818 1.27201 43.7868 1.26205Z" fill="#FAFAFA"/>
<path d="M43.7868 1.26205C43.7868 1.26205 43.8335 1.26282 43.9256 1.26665C43.9719 1.26876 44.0294 1.27125 44.098 1.27412C44.1668 1.27508 44.2464 1.28159 44.3365 1.29711C44.4266 1.31034 44.5276 1.32528 44.6396 1.34176C44.7493 1.3682 44.8697 1.39733 45.0008 1.42875C45.1289 1.46822 45.2655 1.51747 45.4125 1.56844C45.5515 1.63589 45.7096 1.69204 45.8603 1.78114C46.1726 1.94229 46.4881 2.17683 46.7956 2.47039C47.1019 2.76548 47.3835 3.14028 47.5921 3.58828C47.8014 4.03494 47.9359 4.55653 47.9404 5.11969C47.9394 5.67998 47.9382 6.27629 47.9369 6.90825C47.9181 11.9633 47.8906 19.2764 47.8569 28.3127C47.8192 37.3499 47.7744 48.1102 47.7244 60.0581C47.718 61.5518 47.7115 63.0638 47.7049 64.5933C47.7017 65.3581 47.6984 66.1274 47.6949 66.9008C47.6916 67.0945 47.6984 67.2867 47.6871 67.4825L47.6699 67.7769L47.6218 68.0683C47.5411 68.4533 47.4175 68.8359 47.2133 69.1835C47.0135 69.5319 46.7643 69.8571 46.4641 70.1395C46.1605 70.4179 45.8144 70.6559 45.4379 70.845C45.0595 71.0321 44.6476 71.1557 44.2264 71.2306L43.9076 71.2745L43.5855 71.2894C43.3703 71.2996 43.1594 71.2906 42.9456 71.2923C41.2407 71.2852 39.5195 71.2779 37.7828 71.2706C30.8361 71.2411 23.6439 71.2105 16.2773 71.1788C15.3473 71.1654 14.414 70.8832 13.6908 70.335C12.9635 69.799 12.4238 69.0387 12.2104 68.1984C12.0954 67.782 12.0702 67.3425 12.0831 66.9213C12.0851 66.4971 12.087 66.0736 12.0888 65.6509C12.0927 64.8053 12.0966 63.9625 12.1005 63.1231C12.116 59.7652 12.1312 56.4561 12.1461 53.2049C12.1769 46.7024 12.2061 40.4302 12.2342 34.4554C12.2631 28.4803 12.2903 22.8027 12.3159 17.489C12.3292 14.8322 12.3417 12.2664 12.354 9.80014C12.3601 8.56689 12.366 7.35855 12.372 6.17627C12.3734 5.8806 12.3749 5.58647 12.3765 5.29406C12.3777 5.14785 12.3746 5.00261 12.3869 4.85564L12.3998 4.63624C12.4058 4.56342 12.4224 4.49157 12.4332 4.41952C12.5288 3.84294 12.7631 3.29491 13.1046 2.82296C13.7956 1.8802 14.9101 1.26837 16.061 1.14382C16.3485 1.11162 16.6376 1.11047 16.9198 1.11316C17.2029 1.1145 17.4845 1.11584 17.764 1.11719C18.3232 1.11987 18.8746 1.12255 19.4182 1.12523C21.5931 1.13596 23.6439 1.14631 25.5618 1.1557C29.3971 1.17544 32.7006 1.19268 35.4009 1.20647C38.1003 1.22219 40.1964 1.23446 41.6188 1.2427C42.3289 1.24787 42.8705 1.25189 43.236 1.25457C43.6002 1.25783 43.7868 1.26205 43.7868 1.26205C43.7868 1.26205 43.6 1.26473 43.2358 1.26492C42.8705 1.26435 42.3287 1.26377 41.6188 1.26281C40.1962 1.25879 38.1001 1.25304 35.4007 1.24537C32.7004 1.23618 29.3969 1.22468 25.5614 1.21146C23.6437 1.20437 21.5929 1.1967 19.418 1.18866C18.8744 1.18655 18.3227 1.18463 17.7638 1.18252C17.4841 1.18156 17.2027 1.18042 16.9194 1.17927C16.6354 1.17716 16.352 1.1787 16.0696 1.2105C14.9386 1.33391 13.8448 1.93635 13.1668 2.86282C12.8321 3.32653 12.6027 3.86479 12.5096 4.43063C12.4989 4.50153 12.4826 4.57185 12.4768 4.64333L12.4643 4.8589C12.4525 5.00184 12.4555 5.14843 12.4545 5.29444C12.4533 5.58685 12.452 5.88079 12.4508 6.17646C12.4461 7.35893 12.4412 8.56727 12.4363 9.80052C12.426 12.2668 12.4154 14.8326 12.4043 17.4894C12.382 22.8031 12.3579 28.4807 12.3325 34.4557C12.3065 40.4306 12.279 46.7028 12.2506 53.2055C12.2362 56.4565 12.2215 59.7655 12.2065 63.1234C12.2029 63.9631 12.199 64.8056 12.1953 65.6513C12.1934 66.074 12.1914 66.4974 12.1896 66.9219C12.1769 67.3478 12.2018 67.7652 12.3138 68.1743C12.5215 68.9933 13.0479 69.734 13.7565 70.2566C14.4617 70.7912 15.3706 71.0656 16.2777 71.0792C23.6443 71.1112 30.8367 71.1426 37.7834 71.1727C39.5199 71.1806 41.2413 71.188 42.946 71.1955C43.1586 71.1942 43.3736 71.203 43.583 71.193L43.8973 71.1785L44.2086 71.1357C44.6191 71.0627 45.021 70.9422 45.3904 70.76C45.7577 70.5754 46.0952 70.3432 46.3921 70.0719C46.6847 69.7963 46.9281 69.4788 47.1232 69.1393C47.3227 68.8001 47.4429 68.4268 47.5219 68.0515L47.5692 67.7671L47.586 67.4801C47.5972 67.2888 47.5907 67.0932 47.594 66.9004C47.5974 66.1269 47.6011 65.3579 47.6046 64.593C47.6122 63.0635 47.6194 61.5512 47.6263 60.0577C47.6847 48.11 47.7373 37.3497 47.7815 28.3125C47.8296 19.2762 47.8685 11.9631 47.8954 6.90805C47.8984 6.27629 47.9013 5.67998 47.9038 5.11988C47.9009 4.56151 47.7692 4.04395 47.563 3.60016C47.3577 3.15503 47.0796 2.78195 46.7764 2.48763C46.4719 2.19484 46.1595 1.9603 45.8495 1.79858C45.7 1.70909 45.5431 1.65256 45.4049 1.58454C45.2589 1.53338 45.1234 1.48337 44.9958 1.44332C44.8658 1.41094 44.746 1.38123 44.6365 1.35402C44.5253 1.33678 44.4246 1.32125 44.3349 1.30727C44.2454 1.29098 44.166 1.2837 44.0972 1.28197C44.029 1.27795 43.9715 1.2745 43.9254 1.27182C43.8335 1.26607 43.7868 1.26205 43.7868 1.26205Z" fill="#1A2E35"/>
<path d="M43.3418 45.2871H16.4338V43.6024H43.3418V45.2871Z" fill="#FF735D"/>
<path d="M42.382 50.2344C42.382 50.295 36.6384 50.3444 29.5554 50.3444C22.4692 50.3444 16.7275 50.295 16.7275 50.2344C16.7275 50.1737 22.4692 50.1243 29.5554 50.1243C36.6384 50.1243 42.382 50.1737 42.382 50.2344Z" fill="#1A2E35"/>
<path d="M42.382 10.2785C42.382 10.3395 36.6384 10.3885 29.5554 10.3885C22.4692 10.3885 16.7275 10.3395 16.7275 10.2785C16.7275 10.2178 22.4692 10.1686 29.5554 10.1686C36.6384 10.1686 42.382 10.2178 42.382 10.2785Z" fill="#1A2E35"/>
<path d="M42.382 53.3007C42.382 53.3618 36.6384 53.4109 29.5554 53.4109C22.4692 53.4109 16.7275 53.3618 16.7275 53.3007C16.7275 53.2401 22.4692 53.1909 29.5554 53.1909C36.6384 53.1909 42.382 53.2401 42.382 53.3007Z" fill="#1A2E35"/>
<path d="M42.382 56.3673C42.382 56.4281 36.6384 56.4771 29.5554 56.4771C22.4692 56.4771 16.7275 56.4281 16.7275 56.3673C16.7275 56.3064 22.4692 56.2571 29.5554 56.2571C36.6384 56.2571 42.382 56.3064 42.382 56.3673Z" fill="#1A2E35"/>
<path d="M42.382 59.4336C42.382 59.4943 36.6384 59.5438 29.5554 59.5438C22.4692 59.5438 16.7275 59.4943 16.7275 59.4336C16.7275 59.373 22.4692 59.3234 29.5554 59.3234C36.6384 59.3234 42.382 59.373 42.382 59.4336Z" fill="#1A2E35"/>
<path d="M42.382 62.4998C42.382 62.5609 36.6384 62.61 29.5554 62.61C22.4692 62.61 16.7275 62.5609 16.7275 62.4998C16.7275 62.4393 22.4692 62.3902 29.5554 62.3902C36.6384 62.3902 42.382 62.4393 42.382 62.4998Z" fill="#1A2E35"/>
<path d="M42.7489 65.9768C42.7489 66.0374 37.0054 66.087 29.9223 66.087C22.8366 66.087 17.0945 66.0374 17.0945 65.9768C17.0945 65.9163 22.8366 65.8666 29.9223 65.8666C37.0054 65.8666 42.7489 65.9163 42.7489 65.9768Z" fill="#1A2E35"/>
<path d="M43.7034 38.1994H16.7275V13.775H43.7034V38.1994Z" fill="#375A64"/>
<g opacity="0.300003">
<g opacity="0.300003">
<path opacity="0.300003" d="M34.985 21.0958C34.985 22.0992 34.1156 22.9128 33.0435 22.9128C31.9714 22.9128 31.1022 22.0992 31.1022 21.0958C31.1022 20.0925 31.9714 19.2793 33.0435 19.2793C34.1156 19.2793 34.985 20.0925 34.985 21.0958Z" fill="black"/>
</g>
</g>
<g opacity="0.300003">
<g opacity="0.300003">
<path opacity="0.300003" d="M41.6185 15.6882C35.017 15.6834 27.1921 15.6777 18.8279 15.6713C18.8531 15.6443 18.5826 15.9005 18.6971 15.7951V15.8005V15.8114V15.8332V15.8767V15.9641V16.1383L18.6973 16.4863V17.1799V18.5586C18.6979 19.4738 18.6979 20.3807 18.6983 21.2781C18.6991 23.0729 18.7003 24.8303 18.7014 26.5412C18.7059 29.9618 18.7102 33.1957 18.7137 36.1706V36.276L18.8257 36.2756C25.6583 36.2537 31.3652 36.2353 35.3774 36.2225C37.3579 36.2106 38.9202 36.2014 40.0003 36.1949C40.5212 36.1897 40.9256 36.1855 41.2114 36.1828C41.3398 36.1803 41.4401 36.1782 41.5187 36.1767C41.5871 36.175 41.6207 36.1727 41.6185 36.1709L36.0938 27.3077L32.3851 31.5737L26.2812 23.5403L18.9379 36.0606C18.9413 33.1158 18.9458 29.92 18.9501 26.5412C18.951 24.8303 18.9518 23.0729 18.9532 21.2781C18.9536 20.3807 18.9536 19.4738 18.954 18.5586V17.1799V16.4863V16.1383V15.9641V15.9118C27.2249 15.9057 34.9633 15.8997 41.5085 15.8948C41.5318 21.948 41.5511 26.9917 41.5646 30.5389C41.5769 32.3175 41.5867 33.7182 41.5933 34.6867C41.599 35.1594 41.6029 35.5262 41.606 35.786C41.6088 35.9046 41.6109 35.9977 41.6123 36.0707C41.6144 36.1353 41.6166 36.169 41.6185 36.1709C41.6207 36.1727 41.6228 36.143 41.6246 36.0822C41.6264 36.0119 41.6281 35.9226 41.6307 35.8086C41.6338 35.5534 41.6383 35.1933 41.6436 34.7294C41.6502 33.7661 41.6604 32.3733 41.6723 30.6047C41.686 27.0212 41.7053 21.9182 41.7288 15.7919L41.7292 15.6884L41.6185 15.6882Z" fill="black"/>
</g>
</g>
<path d="M43.472 1.04929C43.4742 0.470415 42.9736 -5.4865e-06 42.3551 -5.4865e-06H41.0598H34.5894C35.2061 -5.4865e-06 35.7063 0.467924 35.7063 1.04527V11.2477L39.5962 9.20051L43.4861 11.0653C43.4861 11.0653 43.4605 3.81088 43.472 1.04929" fill="#FF735D"/>
<path d="M39.8426 3.81753L40.1135 4.33126C40.1362 4.37399 40.1796 4.40369 40.2302 4.41059L40.8361 4.49298C40.9632 4.51023 41.014 4.65643 40.9218 4.74036L40.4835 5.14026C40.447 5.17361 40.4304 5.2217 40.439 5.26865L40.5424 5.83335C40.5641 5.95176 40.4313 6.04221 40.3176 5.98626L39.7756 5.71952C39.7306 5.69749 39.6765 5.69749 39.6315 5.71952L39.0897 5.98626C38.9759 6.04221 38.843 5.95176 38.8647 5.83335L38.9681 5.26865C38.9769 5.2217 38.9601 5.17361 38.9236 5.14026L38.4853 4.74036C38.3933 4.65643 38.4439 4.51023 38.5713 4.49298L39.1769 4.41059C39.2275 4.40369 39.2711 4.37399 39.2936 4.33126L39.5645 3.81753C39.6215 3.70965 39.7857 3.70965 39.8426 3.81753Z" fill="white"/>
<path d="M57.9938 86.1717L31.263 86.1567C28.0481 86.1552 25.4431 83.7153 25.4437 80.7066L25.4568 17.9917C25.4574 14.9814 28.0662 12.5417 31.2828 12.5435L58.0139 12.5582C61.2287 12.5599 63.8336 14.9998 63.833 18.0084L63.8199 80.7234C63.8193 83.7337 61.2105 86.1734 57.9938 86.1717Z" fill="#1A2E35"/>
<path d="M57.9854 14.7763L52.8027 14.7735C52.1077 14.7733 51.544 15.3242 51.544 16.004L51.5436 16.8837C51.5438 17.5638 50.9799 18.1147 50.2852 18.1143L40.1831 18.1088C39.4881 18.1084 38.9246 17.5567 38.9248 16.8768L38.925 15.9971C38.925 15.3171 38.3618 14.7654 37.6666 14.7652L35.8439 14.7641L31.308 14.7616C29.0553 14.7604 27.2281 16.4689 27.2277 18.5773L27.215 79.7916C27.2144 81.899 29.0387 83.6076 31.2904 83.609L57.9678 83.6233C60.2205 83.6247 62.0475 81.9162 62.0481 79.8078L62.0608 18.5934C62.0612 16.4863 60.2369 14.7777 57.9854 14.7763Z" fill="#FAFAFA"/>
<path d="M42.6725 78.4881C42.6748 78.7527 42.4475 78.9692 42.1645 78.9712C41.8818 78.9735 41.6506 78.7608 41.6483 78.496C41.6459 78.2313 41.8734 78.0148 42.1561 78.0129C42.4389 78.0106 42.6701 78.2233 42.6725 78.4881Z" fill="#1A2E35"/>
<path d="M45.542 78.4658C45.5442 78.7306 45.3168 78.947 45.0342 78.9491C44.7512 78.9514 44.5201 78.7385 44.5176 78.4739C44.5151 78.2091 44.7428 77.9927 45.0256 77.9906C45.3084 77.9885 45.5395 78.2012 45.542 78.4658Z" fill="#1A2E35"/>
<path d="M48.4114 78.4437C48.4138 78.7084 48.1861 78.9247 47.9036 78.9268C47.6206 78.9291 47.3894 78.7164 47.387 78.4516C47.3847 78.1868 47.6122 77.9704 47.8952 77.9685C48.1777 77.9662 48.4089 78.1789 48.4114 78.4437Z" fill="#1A2E35"/>
<path d="M56.9655 56.9913H32.1801V55.4758H56.9655V56.9913Z" fill="#FF735D"/>
<path d="M56.6099 60.4589C56.6099 60.5135 51.0457 60.5579 44.1838 60.5579C37.319 60.5579 31.7567 60.5135 31.7567 60.4589C31.7567 60.4041 37.319 60.3596 44.1838 60.3596C51.0457 60.3596 56.6099 60.4041 56.6099 60.4589Z" fill="#1A2E35"/>
<path d="M56.6099 63.2173C56.6099 63.2723 51.0457 63.3165 44.1838 63.3165C37.319 63.3165 31.7567 63.2723 31.7567 63.2173C31.7567 63.1629 37.319 63.1184 44.1838 63.1184C51.0457 63.1184 56.6099 63.1629 56.6099 63.2173Z" fill="#1A2E35"/>
<path d="M56.6099 65.9761C56.6099 66.0307 51.0457 66.075 44.1838 66.075C37.319 66.075 31.7567 66.0307 31.7567 65.9761C31.7567 65.9211 37.319 65.8768 44.1838 65.8768C51.0457 65.8768 56.6099 65.9211 56.6099 65.9761Z" fill="#1A2E35"/>
<path d="M56.6099 68.7345C56.6099 68.7891 51.0457 68.8338 44.1838 68.8338C37.319 68.8338 31.7567 68.7891 31.7567 68.7345C31.7567 68.6799 37.319 68.6352 44.1838 68.6352C51.0457 68.6352 56.6099 68.6799 56.6099 68.7345Z" fill="#1A2E35"/>
<path d="M56.6099 71.4929C56.6099 71.5479 51.0457 71.5922 44.1838 71.5922C37.319 71.5922 31.7567 71.5479 31.7567 71.4929C31.7567 71.4383 37.319 71.394 44.1838 71.394C51.0457 71.394 56.6099 71.4383 56.6099 71.4929Z" fill="#1A2E35"/>
<path d="M56.9654 74.6208C56.9654 74.6754 51.4013 74.72 44.5393 74.72C37.675 74.72 32.112 74.6754 32.112 74.6208C32.112 74.5663 37.675 74.5217 44.5393 74.5217C51.4013 74.5217 56.9654 74.5663 56.9654 74.6208Z" fill="#1A2E35"/>
<path d="M43.2446 39.3694H31.9294V29.1246H43.2446V39.3694Z" fill="#375A64"/>
<g opacity="0.300003">
<g opacity="0.300003">
<path opacity="0.300003" d="M39.5875 32.1952C39.5875 32.616 39.2229 32.9574 38.7732 32.9574C38.3236 32.9574 37.9589 32.616 37.9589 32.1952C37.9589 31.7744 38.3236 31.4331 38.7732 31.4331C39.2229 31.4331 39.5875 31.7744 39.5875 32.1952Z" fill="black"/>
</g>
</g>
<g opacity="0.300003">
<g opacity="0.300003">
<path opacity="0.300003" d="M42.3701 29.9269C39.6012 29.925 36.319 29.9225 32.8105 29.9198C32.8212 29.9085 32.7077 30.016 32.7556 29.9718V29.9741V29.9787V29.9879V30.0061V30.0427V30.1157L32.7558 30.2617V30.5526V31.1309C32.7558 31.5149 32.7558 31.8952 32.756 32.2716C32.7565 33.0246 32.7571 33.7616 32.7575 34.4792C32.7593 35.914 32.7612 37.2705 32.7626 38.5183V38.5625L32.8097 38.5624C35.6754 38.5532 38.0694 38.5455 39.7521 38.5401C40.583 38.5351 41.2382 38.5311 41.6913 38.5286C41.9098 38.5263 42.0795 38.5246 42.1993 38.5235C42.2531 38.5223 42.2953 38.5215 42.3283 38.521C42.357 38.5202 42.3709 38.5192 42.3701 38.5185L40.0527 34.8007L38.4969 36.59L35.9369 33.2204L32.8568 38.4721C32.858 37.2369 32.8601 35.8966 32.8617 34.4792C32.8621 33.7616 32.8625 33.0246 32.8631 32.2716C32.8633 31.8952 32.8633 31.5149 32.8633 31.1309V30.5526V30.2617V30.1157V30.0427V30.0208C36.3327 30.0181 39.5786 30.0156 42.324 30.0137C42.3336 32.5527 42.3418 34.6683 42.3475 36.1562C42.3527 36.9022 42.3568 37.4897 42.3594 37.8959C42.3619 38.0942 42.3635 38.2479 42.3649 38.3569C42.366 38.4068 42.3668 38.4459 42.3674 38.4765C42.3684 38.5035 42.3692 38.5177 42.3701 38.5185C42.3709 38.5192 42.3719 38.5066 42.3727 38.4813C42.3733 38.4518 42.3742 38.4142 42.3752 38.3665C42.3764 38.2594 42.3785 38.1084 42.3805 37.9137C42.3834 37.5098 42.3875 36.9254 42.3926 36.1836C42.3983 34.6806 42.4065 32.5402 42.4163 29.9704L42.4165 29.9269H42.3701Z" fill="black"/>
</g>
</g>
<path d="M57.2788 39.3694H45.9637V29.1246H57.2788V39.3694Z" fill="#375A64"/>
<g opacity="0.300003">
<g opacity="0.300003">
<path opacity="0.300003" d="M53.6218 32.1952C53.6218 32.616 53.2571 32.9574 52.8073 32.9574C52.3576 32.9574 51.9932 32.616 51.9932 32.1952C51.9932 31.7744 52.3576 31.4331 52.8073 31.4331C53.2571 31.4331 53.6218 31.7744 53.6218 32.1952Z" fill="black"/>
</g>
</g>
<g opacity="0.300003">
<g opacity="0.300003">
<path opacity="0.300003" d="M56.4042 29.9269C53.6353 29.925 50.3531 29.9225 46.8446 29.9198C46.8553 29.9085 46.7418 30.016 46.7898 29.9718V29.9741V29.9787V29.9879V30.0061V30.0427V30.1157L46.79 30.2617V30.5526V31.1309C46.7902 31.5149 46.7902 31.8952 46.7904 32.2716C46.7908 33.0246 46.7912 33.7616 46.7916 34.4792C46.7934 35.914 46.7953 37.2705 46.7967 38.5183V38.5625L46.8438 38.5624C49.7097 38.5532 52.1035 38.5455 53.7864 38.5401C54.6171 38.5351 55.2725 38.5311 55.7256 38.5286C55.9439 38.5263 56.1136 38.5246 56.2334 38.5235C56.2873 38.5223 56.3294 38.5215 56.3624 38.521C56.3911 38.5202 56.4052 38.5192 56.4042 38.5185L54.087 34.8007L52.5313 36.59L49.971 33.2204L46.8907 38.4721C46.8923 37.2369 46.8942 35.8966 46.8958 34.4792C46.8962 33.7616 46.8966 33.0246 46.8972 32.2716C46.8972 31.8952 46.8972 31.5149 46.8975 31.1309V30.5526V30.2617V30.1157V30.0427V30.0208C50.3668 30.0181 53.6126 30.0156 56.3581 30.0137C56.3677 32.5527 56.3759 34.6683 56.3817 36.1562C56.3868 36.9022 56.3909 37.4897 56.3935 37.8959C56.396 38.0942 56.3978 38.2479 56.3991 38.3569C56.4001 38.4068 56.4009 38.4459 56.4015 38.4765C56.4025 38.5035 56.4034 38.5177 56.4042 38.5185C56.4052 38.5192 56.406 38.5066 56.4068 38.4813C56.4077 38.4518 56.4083 38.4142 56.4093 38.3665C56.4105 38.2594 56.4126 38.1084 56.4148 37.9137C56.4175 37.5098 56.4218 36.9254 56.4267 36.1836C56.4326 34.6806 56.4406 32.5402 56.4505 29.9704L56.4507 29.9269H56.4042Z" fill="black"/>
</g>
</g>
<path d="M43.2446 51.5137H31.9294V41.2689H43.2446V51.5137Z" fill="#375A64"/>
<g opacity="0.300003">
<g opacity="0.300003">
<path opacity="0.300003" d="M39.5875 44.3394C39.5875 44.7602 39.2229 45.1017 38.7732 45.1017C38.3236 45.1017 37.9589 44.7602 37.9589 44.3394C37.9589 43.9186 38.3236 43.5773 38.7732 43.5773C39.2229 43.5773 39.5875 43.9186 39.5875 44.3394Z" fill="black"/>
</g>
</g>
<g opacity="0.300003">
<g opacity="0.300003">
<path opacity="0.300003" d="M42.3701 42.0712C39.6012 42.0691 36.319 42.0668 32.8105 42.064C32.8212 42.0528 32.7077 42.1603 32.7556 42.1161V42.1184V42.123V42.132V42.1504V42.187V42.26L32.7558 42.406V42.6969V43.2752C32.7558 43.659 32.7558 44.0393 32.756 44.4159C32.7565 45.1687 32.7571 45.9059 32.7575 46.6235C32.7593 48.0581 32.7612 49.4148 32.7626 50.6626V50.7067L32.8097 50.7065C35.6754 50.6975 38.0694 50.6898 39.7521 50.6843C40.583 50.6795 41.2382 50.6754 41.6913 50.6728C41.9098 50.6706 42.0795 50.6687 42.1993 50.6676C42.2531 50.6666 42.2953 50.6659 42.3283 50.6653C42.357 50.6643 42.3709 50.6634 42.3701 50.6628L40.0527 46.945L38.4969 48.7344L35.9369 45.3648L32.8568 50.6164C32.858 49.3811 32.8601 48.0407 32.8617 46.6235C32.8621 45.9059 32.8625 45.1687 32.8631 44.4159C32.8633 44.0393 32.8633 43.659 32.8633 43.2752V42.6969V42.406V42.26V42.187V42.1649C36.3327 42.1625 39.5786 42.16 42.324 42.1579C42.3336 44.6968 42.3418 46.8124 42.3475 48.3003C42.3527 49.0463 42.3568 49.634 42.3594 50.0402C42.3619 50.2384 42.3635 50.3922 42.3649 50.5013C42.366 50.5511 42.3668 50.59 42.3674 50.6206C42.3684 50.6478 42.3692 50.6618 42.3701 50.6628C42.3709 50.6634 42.3719 50.6509 42.3727 50.6256C42.3733 50.5959 42.3742 50.5586 42.3752 50.5106C42.3764 50.4035 42.3785 50.2525 42.3805 50.058C42.3834 49.6539 42.3875 49.0697 42.3926 48.3277C42.3983 46.8249 42.4065 44.6845 42.4163 42.1147L42.4165 42.0712H42.3701Z" fill="black"/>
</g>
</g>
<path d="M57.2718 51.5137H45.9567V41.2689H57.2718V51.5137Z" fill="#375A64"/>
<g opacity="0.300003">
<g opacity="0.300003">
<path opacity="0.300003" d="M53.6148 44.3394C53.6148 44.7602 53.2503 45.1017 52.8005 45.1017C52.3508 45.1017 51.9861 44.7602 51.9861 44.3394C51.9861 43.9186 52.3508 43.5773 52.8005 43.5773C53.2503 43.5773 53.6148 43.9186 53.6148 44.3394Z" fill="black"/>
</g>
</g>
<g opacity="0.300003">
<g opacity="0.300003">
<path opacity="0.300003" d="M56.3971 42.0712C53.6283 42.0691 50.3461 42.0668 46.8376 42.064C46.8482 42.0528 46.735 42.1603 46.7827 42.1161V42.1184V42.123V42.132V42.1504V42.187V42.26L46.7829 42.406V42.6969V43.2752C46.7831 43.659 46.7831 44.0393 46.7833 44.4159C46.7837 45.1687 46.7844 45.9059 46.7848 46.6235C46.7864 48.0581 46.7883 49.4148 46.7899 50.6626V50.7067L46.837 50.7065C49.7027 50.6975 52.0965 50.6898 53.7794 50.6843C54.6101 50.6795 55.2655 50.6754 55.7186 50.6728C55.9371 50.6706 56.1066 50.6687 56.2264 50.6676C56.2804 50.6666 56.3226 50.6659 56.3554 50.6653C56.3842 50.6643 56.3982 50.6634 56.3971 50.6628L54.0799 46.945L52.5242 48.7344L49.964 45.3648L46.8839 50.6164C46.8853 49.3811 46.8871 48.0407 46.8888 46.6235C46.8892 45.9059 46.8896 45.1687 46.8902 44.4159C46.8904 44.0393 46.8904 43.659 46.8906 43.2752V42.6969V42.406V42.26V42.187V42.1649C50.3598 42.1625 53.6057 42.16 56.3511 42.1579C56.3609 44.6968 56.3689 46.8124 56.3748 48.3003C56.3797 49.0463 56.384 49.634 56.3867 50.0402C56.3892 50.2384 56.3908 50.3922 56.392 50.5013C56.3931 50.5511 56.3941 50.59 56.3945 50.6206C56.3955 50.6478 56.3965 50.6618 56.3971 50.6628C56.3982 50.6634 56.3992 50.6509 56.3998 50.6256C56.4006 50.5959 56.4014 50.5586 56.4023 50.5106C56.4037 50.4035 56.4055 50.2525 56.4078 50.058C56.4105 49.6539 56.4148 49.0697 56.4197 48.3277C56.4256 46.8249 56.4338 44.6845 56.4436 42.1147L56.4438 42.0712H56.3971Z" fill="black"/>
</g>
</g>
<path d="M57.4037 21.467C57.0077 21.467 56.6858 21.7816 56.6858 22.1683C56.6858 22.5548 57.0077 22.8694 57.4037 22.8694C57.5589 22.8694 57.7072 22.8209 57.8327 22.7295C57.8431 22.7217 57.857 22.7203 57.8689 22.7253L58.0872 22.8186L57.9899 22.6015C57.985 22.5902 57.9864 22.5772 57.9936 22.567C58.0771 22.4492 58.1214 22.3114 58.1214 22.1683C58.1214 21.7816 57.7995 21.467 57.4037 21.467ZM57.4037 22.9405C56.9678 22.9405 56.6132 22.594 56.6132 22.1683C56.6132 21.7423 56.9678 21.3959 57.4037 21.3959C57.8396 21.3959 58.1943 21.7423 58.1943 22.1683C58.1943 22.3193 58.1496 22.4649 58.0649 22.591L58.1912 22.8734C58.1971 22.8868 58.1941 22.9026 58.1836 22.9129C58.173 22.9232 58.1568 22.9259 58.1431 22.9204L57.8591 22.7987C57.7246 22.8914 57.5677 22.9405 57.4037 22.9405Z" fill="#1A2E35"/>
<path d="M59.6436 22.4998C59.651 22.4998 59.6585 22.5019 59.6649 22.5061L60.2046 22.8662V21.5352H59.0828V22.8662L59.6225 22.5061C59.6289 22.5019 59.6364 22.4998 59.6436 22.4998ZM60.2411 22.9664C60.2335 22.9664 60.2261 22.9643 60.2198 22.9599L59.6436 22.5757L59.0676 22.9599C59.0564 22.9675 59.0418 22.9683 59.0297 22.9627C59.0175 22.9568 59.0099 22.9451 59.0099 22.9323V21.5011C59.0099 21.4821 59.0263 21.467 59.0463 21.467H60.2411C60.2611 21.467 60.2775 21.4821 60.2775 21.5011V22.9323C60.2775 22.9451 60.2699 22.9568 60.2577 22.9627C60.2525 22.965 60.2466 22.9664 60.2411 22.9664Z" fill="#FF735D"/>
<path d="M28.9863 23.0629C28.9875 23.0617 29.0049 23.0606 29.0373 23.059C29.0789 23.0575 29.1249 23.0558 29.1778 23.0538C29.3145 23.0502 29.4859 23.0458 29.6933 23.0404L29.6753 23.0575C29.6733 22.9496 29.671 22.8325 29.6685 22.7068C29.6692 22.6413 29.6622 22.5811 29.6692 22.5041C29.6833 22.4273 29.7564 22.3592 29.8467 22.3512C29.9312 22.3495 30.0027 22.3458 30.0948 22.3497C30.1905 22.3604 30.2718 22.4468 30.2691 22.5415C30.2711 22.7051 30.2734 22.8758 30.2756 23.0529L30.2455 23.0251C30.455 23.023 30.6731 23.0209 30.8975 23.0188L30.8664 23.0483C30.8641 22.8024 30.8616 22.5484 30.859 22.2881C30.8586 22.2234 30.858 22.1588 30.8573 22.0948C30.8567 22.0369 30.8209 22.0001 30.7677 21.9547C30.6712 21.8656 30.5762 21.7779 30.4826 21.6918C30.3895 21.6056 30.2978 21.5209 30.2079 21.4377C30.163 21.3964 30.1186 21.3552 30.0748 21.3145C30.0285 21.2728 29.9937 21.2314 29.9427 21.2218C29.893 21.2091 29.8383 21.2189 29.7982 21.2475C29.7599 21.2776 29.7169 21.3224 29.6774 21.3584C29.5971 21.4341 29.5191 21.5077 29.4431 21.579C29.2963 21.7215 29.1419 21.8532 29.0316 21.9749C28.9855 22.0412 29.0025 22.1237 28.999 22.2C28.9986 22.2751 28.9982 22.3466 28.9978 22.4144C28.9965 22.5445 28.9953 22.6597 28.9943 22.7603C28.9927 22.8463 28.9914 22.9193 28.9904 22.9822C28.9892 23.0335 28.9877 23.0613 28.9863 23.0629C28.9849 23.0642 28.983 23.0393 28.9808 22.9902C28.9787 22.9287 28.9761 22.8571 28.9732 22.7727C28.9703 22.6712 28.9671 22.5549 28.9634 22.4234C28.9617 22.3539 28.9603 22.2807 28.9585 22.2036C28.9609 22.1293 28.9388 22.0379 28.9927 21.9534C29.1143 21.8133 29.257 21.692 29.4054 21.5443C29.4806 21.4722 29.5578 21.3979 29.6372 21.3216C29.6794 21.2827 29.7126 21.2454 29.7636 21.2042C29.8172 21.1657 29.8907 21.1519 29.9577 21.1683C30.0291 21.1831 30.0754 21.2377 30.117 21.2745C30.161 21.3149 30.2058 21.3557 30.2507 21.3971C30.341 21.4797 30.4329 21.564 30.5267 21.6499C30.6202 21.7359 30.7157 21.8235 30.8123 21.9122C30.8584 21.9494 30.9243 22.0155 30.9212 22.0929C30.9218 22.1575 30.9225 22.2224 30.9231 22.2878C30.9251 22.548 30.9272 22.8021 30.929 23.0477L30.9294 23.0772L30.8979 23.0774C30.6735 23.0786 30.4556 23.0797 30.2462 23.0811H30.2163L30.2161 23.0533C30.2152 22.8762 30.2144 22.7055 30.2136 22.5418C30.2163 22.4706 30.1573 22.4079 30.0867 22.3987C30.0138 22.3951 29.9233 22.3972 29.8516 22.3978C29.7838 22.4029 29.7271 22.4537 29.7152 22.5123C29.7089 22.5719 29.7136 22.6447 29.7122 22.7064C29.712 22.8323 29.7118 22.9494 29.7115 23.0571V23.0745L29.6935 23.0744C29.4818 23.0721 29.3067 23.0703 29.1671 23.069C29.1159 23.0678 29.0711 23.0669 29.0307 23.0659C29.0002 23.065 28.9851 23.064 28.9863 23.0629Z" fill="#1A2E35"/>
<path d="M54.9037 23.407H33.2039C32.6252 23.407 32.1561 22.9678 32.1561 22.4263V21.8309C32.1561 21.2894 32.6252 20.8504 33.2039 20.8504H54.9037C55.4823 20.8504 55.9514 21.2894 55.9514 21.8309V22.4263C55.9514 22.9678 55.4823 23.407 54.9037 23.407Z" fill="#E1E1E1"/>
<path d="M34.98 22.089V22.5323H34.7402V22.1237C34.7402 21.9984 34.6788 21.9409 34.5727 21.9409C34.4574 21.9409 34.3743 22.007 34.3743 22.1494V22.5323H34.1345V21.4648H34.3743V21.8388C34.4388 21.7784 34.5311 21.7466 34.6372 21.7466C34.8323 21.7466 34.98 21.8532 34.98 22.089Z" fill="#1A2E35"/>
<path d="M35.7303 22.4947C35.6812 22.5279 35.6089 22.5436 35.5352 22.5436C35.3398 22.5436 35.2262 22.4503 35.2262 22.2661V21.9481H35.0986V21.7756H35.2262V21.587H35.466V21.7756H35.6719V21.9481H35.466V22.2633C35.466 22.3294 35.5043 22.3652 35.569 22.3652C35.6042 22.3652 35.6396 22.3552 35.6658 22.3365L35.7303 22.4947Z" fill="#1A2E35"/>
<path d="M36.3805 22.4947C36.3314 22.5279 36.2591 22.5436 36.1854 22.5436C35.99 22.5436 35.8764 22.4503 35.8764 22.2661V21.9481H35.7488V21.7756H35.8764V21.587H36.1162V21.7756H36.3222V21.9481H36.1162V22.2633C36.1162 22.3294 36.1545 22.3652 36.2192 22.3652C36.2544 22.3652 36.2898 22.3552 36.316 22.3365L36.3805 22.4947Z" fill="#1A2E35"/>
<path d="M37.1737 22.1452C37.1737 22.0114 37.083 21.9308 36.9633 21.9308C36.8433 21.9308 36.7526 22.0114 36.7526 22.1452C36.7526 22.2789 36.8433 22.3596 36.9633 22.3596C37.083 22.3596 37.1737 22.2789 37.1737 22.1452ZM37.4168 22.1452C37.4168 22.3883 37.2368 22.5438 37.0046 22.5438C36.9016 22.5438 36.8173 22.5135 36.7556 22.4502V22.8112H36.5159V21.7581H36.745V21.8474C36.8048 21.7798 36.894 21.7466 37.0046 21.7466C37.2368 21.7466 37.4168 21.902 37.4168 22.1452Z" fill="#1A2E35"/>
<path d="M37.5183 22.4027C37.5183 22.3191 37.5844 22.2645 37.6674 22.2645C37.7503 22.2645 37.8164 22.3191 37.8164 22.4027C37.8164 22.4847 37.7503 22.5437 37.6674 22.5437C37.5844 22.5437 37.5183 22.4847 37.5183 22.4027ZM37.5183 21.8863C37.5183 21.8029 37.5844 21.7481 37.6674 21.7481C37.7503 21.7481 37.8164 21.8029 37.8164 21.8863C37.8164 21.9683 37.7503 22.0273 37.6674 22.0273C37.5844 22.0273 37.5183 21.9683 37.5183 21.8863Z" fill="#1A2E35"/>
<path d="M38.4068 21.3209H38.6203L38.1132 22.676H37.8996L38.4068 21.3209Z" fill="#1A2E35"/>
<path d="M38.8972 21.3209H39.111L38.6036 22.676H38.39L38.8972 21.3209Z" fill="#1A2E35"/>
<path d="M28.9412 68.184C27.8314 67.1843 26.1639 66.7603 24.6663 67.0967C23.1685 67.4332 21.8884 68.5195 21.3845 69.8817L21.9312 71.8605C22.139 71.1864 22.5842 70.5349 23.2728 70.2571C23.9888 69.9683 24.8184 70.1327 25.5513 70.382C26.2841 70.6311 27.004 70.9647 27.7823 71.0096C28.5605 71.0544 29.4389 70.7091 29.6721 70.0126C29.8912 69.358 29.4694 68.6596 28.9412 68.184Z" fill="#FF735D"/>
<g opacity="0.399994">
<g opacity="0.399994">
<path opacity="0.399994" d="M28.9412 68.184C27.8314 67.1843 26.1639 66.7603 24.6663 67.0967C23.1685 67.4332 21.8884 68.5195 21.3845 69.8817L21.9312 71.8605C22.139 71.1864 22.5842 70.5349 23.2728 70.2571C23.9888 69.9683 24.8184 70.1327 25.5513 70.382C26.2841 70.6311 27.004 70.9647 27.7823 71.0096C28.5605 71.0544 29.4389 70.7091 29.6721 70.0126C29.8912 69.358 29.4694 68.6596 28.9412 68.184Z" fill="black"/>
</g>
</g>
<path d="M15.7648 74.7865C14.6229 73.7714 14.68 72.0041 15.2494 70.6298C15.8193 69.2557 17.0623 68.2005 18.4512 67.5049C21.1431 66.1569 24.508 66.0547 27.2875 67.237C25.9216 67.2792 24.6014 68.0046 23.8964 69.1003C23.2707 70.073 23.1316 71.2535 22.6146 72.2806C22.0387 73.4247 20.9817 74.3493 19.7229 74.8097C18.4643 75.2702 17.0173 75.2618 15.7648 74.7865Z" fill="#FF735D"/>
<path d="M15.2159 68.6873C13.9518 67.2906 13.7833 65.0487 13.9696 63.2266C14.1557 61.4045 14.607 59.5708 14.2998 57.763C14.118 56.6921 13.6741 55.6694 13.524 54.5943C13.374 53.5191 13.5865 52.3031 14.477 51.6091C15.5003 50.8113 17.1115 50.9993 18.176 51.7486C19.2404 52.4976 19.8571 53.6741 20.3079 54.847C21.2979 57.4237 21.6614 60.2809 20.8481 62.9112C20.0346 65.5416 18.1261 67.8933 15.3257 68.6873" fill="#FF735D"/>
<path d="M14.6092 80.146C14.6055 80.146 14.6041 80.0906 14.6045 79.9851C14.6059 79.8797 14.6045 79.7239 14.6137 79.5236C14.6299 79.1232 14.6712 78.5437 14.7671 77.8322C14.8633 77.121 15.0138 76.2775 15.2527 75.3552C15.4882 74.431 15.891 73.4459 16.4606 72.4873C17.0321 71.528 17.7292 70.7002 18.4344 70.0181C19.1414 69.3352 19.8646 68.804 20.5037 68.4075C20.8194 68.2033 21.1249 68.0481 21.3878 67.9043C21.6575 67.7719 21.8929 67.6631 22.0856 67.5759C22.2762 67.501 22.4279 67.4414 22.5406 67.3971C22.645 67.3573 22.7003 67.3377 22.7017 67.341C22.7029 67.3441 22.6503 67.3695 22.5487 67.4153C22.4384 67.4634 22.2899 67.5286 22.1032 67.6104C21.9136 67.7028 21.682 67.8158 21.4163 67.9523C21.1572 68.1 20.8563 68.2583 20.5448 68.465C19.915 68.8665 19.2016 69.3995 18.5038 70.0807C17.8077 70.7612 17.1187 71.584 16.5519 72.5352C15.3895 74.4381 15.0711 76.4388 14.8404 77.8414C14.7353 78.5495 14.6831 79.1266 14.6545 79.5258C14.6424 79.7185 14.6328 79.8718 14.6256 79.9856C14.6182 80.0908 14.6129 80.1462 14.6092 80.146Z" fill="#1A2E35"/>
<path d="M3.70439 63.1776C1.36529 64.4986 1.37245 65.7006 1.76333 66.8354C2.15379 67.9701 3.58932 68.7583 4.77956 68.3335C5.45258 68.0932 5.9399 67.5461 6.35616 66.9962C6.77243 66.4462 7.16351 65.8576 7.74685 65.4626C8.15145 65.1886 8.68073 65.0373 9.16354 65.0976L3.70439 63.1776Z" fill="#FF735D"/>
<path d="M9.16351 65.0975L9.76221 65.3081C9.58244 65.188 9.37707 65.1242 9.16351 65.0975Z" fill="#FF735D"/>
<g opacity="0.399994">
<g opacity="0.399994">
<path opacity="0.399994" d="M3.70439 63.1776C1.36529 64.4986 1.37245 65.7006 1.76333 66.8354C2.15379 67.9701 3.58932 68.7583 4.77956 68.3335C5.45258 68.0932 5.9399 67.5461 6.35616 66.9962C6.77243 66.4462 7.16351 65.8576 7.74685 65.4626C8.15145 65.1886 8.68073 65.0373 9.16354 65.0976L3.70439 63.1776Z" fill="black"/>
</g>
</g>
<path d="M10.4573 65.6548L8.28772 64.892L9.17717 65.0025C9.42513 65.0334 9.64196 65.11 9.82174 65.23L10.4573 65.6548Z" fill="black"/>
<path d="M1.95325 64.6258C2.56485 63.835 4.07573 63.606 5.02988 64.0005C5.98403 64.3951 6.68286 65.1778 7.30838 65.959C7.9339 66.7403 8.54284 67.5654 9.40936 68.1088C10.2759 68.6524 11.4864 68.8492 12.3498 68.3018C12.917 67.9421 13.2458 67.3168 13.3488 66.683C13.4516 66.0491 13.3525 65.4018 13.2114 64.7741C13.005 63.8562 12.668 62.8974 11.883 62.3141C11.0081 61.6639 9.79389 61.6333 8.67737 61.6676C7.39622 61.7067 6.09583 61.7965 4.89331 62.2122C3.69079 62.6278 2.4637 63.5255 1.95325 64.6258Z" fill="#FF735D"/>
<path d="M12.665 78.393C12.6631 78.393 12.6611 78.3767 12.6586 78.3449C12.6566 78.3074 12.6539 78.261 12.6509 78.2037C12.6459 78.0717 12.6392 77.8902 12.6306 77.6605C12.6158 77.1805 12.595 76.4999 12.5694 75.6623C12.5411 74.819 12.5043 73.8145 12.4391 72.701C12.3726 71.5877 12.2844 70.3633 12.1038 69.0889C12.012 68.4527 11.9045 67.8305 11.7162 67.2545C11.5266 66.6779 11.2741 66.141 10.9995 65.6493C10.7221 65.1586 10.4178 64.7119 10.0951 64.321C9.77079 63.9309 9.43602 63.5927 9.10759 63.3064C8.44378 62.7387 7.80884 62.3916 7.35674 62.1893C7.24249 62.1404 7.14298 62.0923 7.0533 62.0582C6.96505 62.0262 6.88909 61.9984 6.825 61.9753C6.76808 61.9538 6.72221 61.9364 6.68474 61.9224C6.65341 61.9099 6.63765 61.9026 6.63826 61.9011C6.63867 61.8994 6.65567 61.9034 6.68822 61.9128C6.72651 61.9245 6.77381 61.9388 6.83196 61.9567C6.89748 61.9776 6.97488 62.0025 7.06497 62.0312C7.15629 62.0626 7.25764 62.1082 7.37394 62.1548C7.83402 62.3478 8.48084 62.6885 9.15735 63.2551C9.49212 63.5408 9.83324 63.8797 10.1637 64.2712C10.4923 64.6636 10.8023 65.1128 11.0847 65.607C11.3642 66.1025 11.6205 66.6423 11.814 67.226C12.0069 67.8121 12.115 68.4366 12.2076 69.0758C12.3886 70.3551 12.474 71.5814 12.5356 72.6962C12.5954 73.8115 12.6244 74.8165 12.6433 75.6604C12.6617 76.5046 12.6689 77.1876 12.6713 77.6597C12.6715 77.8897 12.6717 78.0713 12.672 78.2033C12.6709 78.2608 12.6701 78.3072 12.6693 78.3447C12.6683 78.3766 12.6668 78.393 12.665 78.393Z" fill="#1A2E35"/>
<path d="M13.5068 79.3822C13.5068 79.3822 13.3759 79.0572 13.2506 78.4421C13.1286 77.828 13.0373 76.9174 13.1433 75.801C13.2432 74.6849 13.5485 73.375 14.0348 71.9691C14.5148 70.5609 15.1665 69.0548 15.7232 67.4358C15.9992 66.6258 16.2339 65.8243 16.3948 65.0373C16.5578 64.2507 16.661 63.4825 16.7267 62.7486C16.8578 61.2801 16.8391 59.9495 16.801 58.8352C16.7607 57.7202 16.6974 56.819 16.6579 56.1959C16.6387 55.8891 16.6235 55.6486 16.6127 55.4785C16.6088 55.4007 16.6057 55.3388 16.6035 55.2917C16.6018 55.2495 16.602 55.2279 16.6037 55.2277C16.6055 55.2277 16.609 55.2491 16.6141 55.2909C16.619 55.338 16.6256 55.3993 16.6338 55.477C16.6491 55.6469 16.6708 55.8872 16.6985 56.1932C16.7505 56.8156 16.8252 57.7168 16.8752 58.8327C16.9227 59.948 16.9491 61.2814 16.8227 62.7561C16.7595 63.4929 16.6579 64.2647 16.4955 65.0555C16.335 65.8471 16.1 66.653 15.8229 67.4657C15.2642 69.0896 14.6102 70.594 14.1265 71.9969C13.6368 73.397 13.326 74.6983 13.217 75.8074C13.102 76.9166 13.1818 77.822 13.2907 78.4356C13.3481 78.7422 13.4007 78.9794 13.447 79.1379C13.4664 79.2134 13.482 79.2735 13.4941 79.3193C13.5041 79.3605 13.5084 79.3818 13.5068 79.3822Z" fill="#1A2E35"/>
<path d="M19.3058 80.3713H8.32258L8.07196 78.3931H19.3058V80.3713Z" fill="#375A64"/>
<path d="M9.50122 80.146L10.8745 86.0812H16.8425L18.1273 80.146H9.50122Z" fill="#375A64"/>
<path d="M19.3057 80.3713C19.3057 80.3985 16.8909 80.4141 13.9129 80.4062C10.9337 80.3984 8.51969 80.3702 8.5199 80.3432C8.5199 80.3161 10.9342 80.3004 13.9131 80.3083C16.8913 80.3161 19.3057 80.3443 19.3057 80.3713Z" fill="#375A64"/>
<path d="M17.4207 83.3008C17.4068 83.3207 17.0966 83.0216 16.4535 82.7819C16.1345 82.6633 15.7307 82.5706 15.2772 82.561C14.8228 82.547 14.3298 82.6487 13.8312 82.8093C13.3306 82.9678 12.8629 83.1521 12.4077 83.2537C11.9503 83.3458 11.5244 83.3389 11.1776 83.2884C10.8295 83.2374 10.5598 83.1406 10.3868 83.054C10.3014 83.0082 10.2363 82.9714 10.1962 82.9406C10.155 82.9116 10.1346 82.8952 10.1366 82.8923C10.1426 82.8844 10.2304 82.9432 10.4048 83.0197C10.5799 83.0944 10.8467 83.1786 11.188 83.2198C11.5281 83.2608 11.9444 83.2598 12.3862 83.1657C12.8261 83.0628 13.2933 82.8764 13.7978 82.7166C14.3007 82.5543 14.8116 82.4514 15.2796 82.4707C15.7467 82.4859 16.1588 82.5882 16.4813 82.7177C16.8067 82.844 17.0428 82.9971 17.1971 83.1086C17.2745 83.1648 17.3313 83.2121 17.3677 83.2462C17.4048 83.2797 17.4232 83.2981 17.4207 83.3008Z" fill="#1A2E35"/>
<path d="M17.3374 83.6971C17.323 83.7171 17.0247 83.4271 16.4084 83.1851C16.1019 83.0665 15.7124 82.9745 15.2743 82.9665C14.8355 82.9552 14.3578 83.0481 13.8754 83.202C13.3915 83.3534 12.9374 83.5289 12.5037 83.6381C12.0707 83.7491 11.6616 83.7878 11.3215 83.7625C10.9806 83.7403 10.7146 83.65 10.5465 83.5684C10.4636 83.5245 10.4005 83.4888 10.362 83.459C10.3221 83.4306 10.3024 83.4147 10.3045 83.412C10.3104 83.404 10.3952 83.4614 10.5643 83.5339C10.734 83.6034 10.9943 83.6805 11.3262 83.6933C11.6573 83.7092 12.0549 83.6646 12.4779 83.5513C12.9024 83.4394 13.3533 83.2622 13.8424 83.1093C14.3297 82.9535 14.8242 82.8594 15.2767 82.8762C15.7284 82.8895 16.1275 82.9916 16.4373 83.1215C16.7495 83.2489 16.9749 83.4003 17.123 83.5095C17.1971 83.5647 17.2514 83.6111 17.2866 83.6441C17.3222 83.6764 17.3398 83.6945 17.3374 83.6971Z" fill="white"/>
<path d="M17.5295 82.9073C17.5162 82.9259 17.1937 82.6231 16.5363 82.3596C16.2099 82.2297 15.7981 82.1144 15.3307 82.0883C14.863 82.0575 14.353 82.1694 13.8386 82.3345C13.321 82.4966 12.8407 82.6938 12.3648 82.7848C11.8888 82.8655 11.4514 82.8408 11.0943 82.7868C10.7366 82.7287 10.4577 82.6333 10.2782 82.5451C10.1895 82.4988 10.1217 82.4618 10.0802 82.43C10.0374 82.4003 10.0163 82.3834 10.0183 82.3805C10.0241 82.3727 10.115 82.4334 10.296 82.5108C10.4774 82.5867 10.7538 82.6701 11.1058 82.7185C11.4569 82.7628 11.8869 82.7793 12.3464 82.6961C12.8022 82.6047 13.2844 82.4054 13.805 82.2416C14.3235 82.0751 14.8517 81.9613 15.3366 81.9982C15.8186 82.0302 16.2371 82.1558 16.5659 82.2962C16.8974 82.4349 17.1395 82.5934 17.2988 82.709C17.3782 82.7674 17.4372 82.8157 17.4746 82.8511C17.5129 82.8856 17.532 82.9048 17.5295 82.9073Z" fill="white"/>
<path d="M19.4029 80.3799C19.4029 80.407 16.9323 80.4288 13.8852 80.4288C10.8372 80.4288 8.36707 80.407 8.36707 80.3799C8.36707 80.3527 10.8372 80.3309 13.8852 80.3309C16.9323 80.3309 19.4029 80.3527 19.4029 80.3799Z" fill="#1A2E35"/>
<path d="M68.3862 35.7994C68.2284 33.012 68.0705 30.2243 67.9127 27.4369C67.8742 26.7572 67.834 26.0685 67.6104 25.4208C67.3866 24.7734 66.9546 24.1606 66.309 23.8469C65.6636 23.533 64.7904 23.5876 64.2938 24.0849L64.6444 24.5365C64.3561 29.6556 64.2336 34.7827 64.2766 39.9087C64.2797 40.2921 64.2932 40.7031 64.5334 41.0139C64.937 41.5363 65.7552 41.5307 66.4413 41.4723C67.0283 41.4222 67.695 41.3303 68.0234 40.8721C68.1592 40.6824 68.2157 40.4536 68.2607 40.2292C68.5525 38.7737 68.47 37.2781 68.3862 35.7994Z" fill="#1A2E35"/>
<path d="M65.5507 25.0247C65.3621 24.6424 65.0454 24.2921 64.6175 24.1626C64.1895 24.0331 63.6502 24.1869 63.4639 24.5702L64.4735 25.6354C64.5775 25.7892 64.7163 25.9282 64.8937 26.0027C65.0712 26.0772 65.2909 26.078 65.451 25.9745C65.6031 25.8759 65.6807 25.6975 65.6846 25.5242C65.6889 25.3512 65.6283 25.182 65.5507 25.0247Z" fill="#FF735D"/>
<path d="M67.2487 29.4718C67.0749 27.6667 66.0554 25.9113 64.4221 24.9373C62.789 23.9635 60.5545 23.8658 58.9195 24.8373C57.8804 25.4551 57.133 26.4469 56.7033 27.5265C56.2733 28.6062 56.46 29.5009 56.4698 30.6531C56.475 31.25 56.556 32.8548 57.1068 33.1564L65.6987 34.5985C66.7993 33.1073 67.4225 31.2766 67.2487 29.4718Z" fill="#1A2E35"/>
<path d="M66.9456 28.0877C66.7529 27.0146 65.6331 25.9724 64.7604 25.2534C63.7643 24.4327 63.624 24.4699 62.2976 24.4383C60.8988 24.4052 59.3703 24.4107 58.2789 25.2301C57.6741 25.6842 57.2816 26.3388 56.9663 27.0016C56.2375 28.5334 56.3502 30.2824 56.5727 31.9461C56.7953 33.6099 57.1722 35.1802 58.6272 36.1584L64.7432 35.2718C66.0924 34.804 66.5424 33.3614 66.9241 32.0631C67.3057 30.7649 67.1841 29.4154 66.9456 28.0877Z" fill="#1A2E35"/>
<path d="M56.7825 29.1554C56.8683 27.5813 58.659 25.9899 60.3358 26.1369L65.78 27.0426L65.773 27.889L65.8351 38.4603C63.6907 38.9097 61.5971 39.2272 59.5616 39.3914L59.5133 37.2708C59.5133 37.2708 57.3617 36.9613 56.883 34.3444C56.6449 33.0429 56.6875 30.9043 56.7825 29.1554Z" fill="#FFBF9D"/>
<path d="M57.8026 31.2386C57.7981 31.4162 57.9552 31.5663 58.1534 31.5739C58.3514 31.5816 58.5154 31.4442 58.5199 31.2666C58.5242 31.0889 58.3672 30.9389 58.1696 30.9311C57.9712 30.9232 57.8069 31.061 57.8026 31.2386Z" fill="#1A2E35"/>
<path d="M57.3893 30.2625C57.4344 30.3058 57.7042 30.1142 58.091 30.1108C58.477 30.1023 58.7632 30.2851 58.8046 30.2405C58.825 30.2206 58.7786 30.142 58.6539 30.059C58.5312 29.9766 58.3228 29.8975 58.082 29.9011C57.841 29.9052 57.6395 29.9904 57.5242 30.0767C57.4063 30.1633 57.3672 30.243 57.3893 30.2625Z" fill="#1A2E35"/>
<path d="M61.2431 31.2386C61.2386 31.4162 61.3956 31.5661 61.5938 31.5739C61.7916 31.5816 61.9558 31.4442 61.9603 31.2666C61.9646 31.0889 61.8076 30.9387 61.6098 30.9311C61.4116 30.9232 61.2474 31.061 61.2431 31.2386Z" fill="#1A2E35"/>
<path d="M61.1909 30.2871C61.2361 30.3304 61.5062 30.139 61.8925 30.1356C62.2785 30.1269 62.5648 30.3099 62.6061 30.2651C62.6266 30.2452 62.5805 30.1666 62.4554 30.0838C62.3328 30.0012 62.1243 29.9221 61.8835 29.9257C61.6425 29.9298 61.4411 30.015 61.3256 30.1013C61.2083 30.1879 61.1687 30.2678 61.1909 30.2871Z" fill="#1A2E35"/>
<path d="M59.8222 32.9865C59.8238 32.966 59.5828 32.9297 59.1928 32.8874C59.0939 32.879 59.0001 32.8617 58.9827 32.7989C58.9587 32.7324 58.9989 32.6323 59.0451 32.5243C59.1352 32.2997 59.2292 32.0642 59.3281 31.8174C59.7208 30.811 60.0036 29.9842 59.9602 29.9696C59.9168 29.9553 59.5632 30.7591 59.1707 31.7655C59.0763 32.0136 58.986 32.2501 58.9002 32.4764C58.8641 32.582 58.8015 32.7017 58.8537 32.8397C58.8809 32.9083 58.9542 32.9577 59.0177 32.9729C59.0812 32.9903 59.1367 32.9907 59.1858 32.9928C59.5779 33.0081 59.821 33.007 59.8222 32.9865Z" fill="#1A2E35"/>
<path d="M59.5146 37.2777C59.5146 37.2777 61.4967 37.3638 63.3503 36.2922C63.3503 36.2922 62.4277 38.1389 59.5249 37.9315L59.5146 37.2777Z" fill="#FF9A6C"/>
<path d="M59.9969 33.8566C60.1337 33.683 60.3762 33.5856 60.6184 33.6075C60.7863 33.6224 60.9568 33.6962 61.0604 33.8229C61.164 33.9497 61.1876 34.131 61.0967 34.254C60.9941 34.3924 60.7767 34.4265 60.5913 34.3795C60.406 34.3326 60.2459 34.2207 60.0936 34.1091C60.0516 34.0783 60.0084 34.0461 59.9818 34.0034C59.9552 33.9608 59.949 33.9045 59.9806 33.8687" fill="#FF9A6C"/>
<path d="M60.9633 33.2239C60.9003 33.2212 60.9046 33.614 60.5491 33.8969C60.1941 34.1805 59.7461 34.1414 59.7434 34.1964C59.7381 34.2211 59.844 34.2715 60.0329 34.2742C60.2182 34.278 60.4881 34.2194 60.7056 34.0463C60.9226 33.8729 61.0139 33.6437 61.0262 33.4824C61.0401 33.318 60.992 33.2212 60.9633 33.2239Z" fill="#1A2E35"/>
<path d="M61.0909 29.2662C61.1302 29.3643 61.5157 29.3131 61.9701 29.3591C62.4254 29.3969 62.7928 29.5168 62.8517 29.4279C62.8782 29.3854 62.813 29.2938 62.6642 29.2001C62.5162 29.1066 62.2809 29.0188 62.0084 28.9935C61.7356 28.9688 61.4869 29.0119 61.3224 29.0769C61.1568 29.1414 61.0739 29.2196 61.0909 29.2662Z" fill="#1A2E35"/>
<path d="M57.3852 29.0213C57.4542 29.1028 57.7195 29.0144 58.0396 29.0068C58.3596 28.9888 58.6319 29.0552 58.6933 28.9686C58.7202 28.9267 58.6763 28.8449 58.5568 28.7684C58.4388 28.6921 58.2427 28.631 58.0228 28.6396C57.8029 28.6486 57.6131 28.7255 57.5027 28.8107C57.3905 28.8966 57.3547 28.9815 57.3852 29.0213Z" fill="#1A2E35"/>
<path d="M58.6645 25.4065C57.6325 26.0607 56.9189 27.1378 56.5727 28.3179L56.7426 29.2879C56.9842 28.8184 57.0146 28.3153 57.5094 27.8337C57.8418 27.5101 58.456 27.2056 59.1092 27.0502C60.9759 26.6055 61.6047 25.9712 62.4293 24.8299C61.2202 24.5465 59.6962 24.7523 58.6645 25.4065Z" fill="#1A2E35"/>
<path d="M66.7236 27.9686C66.2035 26.2178 64.5047 24.8275 62.5814 24.5784L62.4291 24.8299C61.9567 25.3469 61.4842 25.8639 61.0118 26.3809C60.8939 26.5099 60.7712 26.6484 60.7446 26.8164C60.7088 27.0412 60.8582 27.2597 61.046 27.4036C61.4956 27.7481 62.1257 27.7694 62.7065 27.7841C63.2874 27.7987 63.9222 27.8431 64.3456 28.2156C64.8724 28.6794 64.861 29.4671 64.6839 30.1236C64.5067 30.7799 64.4373 31.838 64.5098 32.5115C64.5749 33.1153 65.4273 31.6488 65.9879 31.9533C66.1446 32.0384 65.723 34.407 65.8862 34.3342C66.0461 34.2629 66.0313 33.4098 66.0844 33.2513C66.3718 32.3935 66.6603 31.5318 66.8135 30.644C66.9669 29.7562 66.9812 28.8349 66.7236 27.9686Z" fill="#1A2E35"/>
<path d="M65.133 32.5233C65.1766 31.9532 65.8494 31.5855 66.3717 31.8822C66.6582 32.0448 66.873 32.365 66.8324 32.9705C66.7243 34.5849 65.0148 34.1503 65.0148 34.104C65.0148 34.075 65.082 33.1909 65.133 32.5233Z" fill="#FFBF9D"/>
<path d="M65.5805 33.5219C65.5885 33.5173 65.6091 33.5436 65.6583 33.5685C65.7062 33.5928 65.7904 33.6127 65.8827 33.5867C66.0692 33.5355 66.2418 33.2743 66.2709 32.9838C66.2857 32.8373 66.2629 32.6955 66.2156 32.5761C66.1714 32.4548 66.0956 32.3672 66.0047 32.3463C65.9151 32.3209 65.8465 32.3682 65.8221 32.4123C65.7959 32.4559 65.8045 32.4889 65.7951 32.4912C65.7899 32.4948 65.7601 32.4617 65.7787 32.396C65.7881 32.3643 65.811 32.3276 65.8536 32.299C65.8972 32.2701 65.9593 32.2578 66.0228 32.2683C66.1552 32.2852 66.2668 32.4071 66.3186 32.5381C66.3782 32.67 66.4077 32.8298 66.3909 32.9944C66.3567 33.319 66.1571 33.6124 65.903 33.6641C65.7797 33.6861 65.6808 33.6457 65.6315 33.6043C65.5807 33.5612 65.5743 33.5246 65.5805 33.5219Z" fill="#FF9A6C"/>
<path d="M65.5697 25.8497C65.5697 25.8497 65.8473 26.1325 66.1837 26.6641C66.3557 26.9278 66.5265 27.26 66.6895 27.6385C66.85 28.0182 66.9817 28.4521 67.074 28.9152C67.2609 29.8451 67.1842 30.7124 67.0462 31.3139C67.0329 31.3901 67.0116 31.4608 66.9915 31.5277C66.972 31.5946 66.9534 31.6578 66.936 31.7172C66.9049 31.8364 66.8621 31.9343 66.8308 32.0154C66.7998 32.0924 66.7751 32.1541 66.756 32.2011C66.7384 32.2434 66.7284 32.2653 66.7265 32.2647C66.7251 32.2639 66.7319 32.2409 66.7462 32.1976C66.7626 32.1499 66.7845 32.0872 66.8113 32.0093C66.8398 31.9274 66.8795 31.8291 66.9075 31.7098C66.9237 31.6504 66.9409 31.5871 66.9589 31.5202C66.9776 31.4534 66.9978 31.3827 67.0097 31.3068C67.1375 30.707 67.2077 29.8469 67.0222 28.9238C66.9305 28.4641 66.8013 28.0332 66.6442 27.6549C66.4849 27.278 66.3185 26.946 66.1516 26.6815C66.111 26.6152 66.0721 26.5518 66.0353 26.4914C65.9952 26.4338 65.9573 26.379 65.9217 26.3276C65.8864 26.2766 65.8535 26.2289 65.8228 26.1848C65.792 26.1412 65.7603 26.1038 65.7337 26.0687C65.6825 26.002 65.6413 25.9486 65.61 25.908C65.5822 25.8708 65.5682 25.8509 65.5697 25.8497Z" fill="#375A64"/>
<path d="M65.7357 26.3406C65.7375 26.3409 65.7342 26.3578 65.7264 26.3904C65.7158 26.4216 65.6982 26.4689 65.6576 26.5201C65.5807 26.6261 65.4119 26.7338 65.1853 26.8058C64.957 26.8759 64.6828 26.9388 64.3749 27.0026C64.0671 27.0637 63.7244 27.1176 63.3607 27.1411C62.9975 27.1651 62.6484 27.1542 62.3355 27.1132C62.0224 27.0718 61.746 27.0028 61.5224 26.9242C61.2982 26.8462 61.1264 26.7619 61.0124 26.6979C60.9544 26.6667 60.9119 26.6391 60.8832 26.6203C60.8543 26.6015 60.8398 26.591 60.8408 26.5897C60.8433 26.5856 60.9053 26.623 61.0222 26.6813C61.1389 26.7397 61.3117 26.8185 61.5349 26.8915C61.7579 26.9649 62.0321 27.0298 62.3421 27.0683C62.6519 27.1065 62.9969 27.1158 63.3572 27.0921C64.0776 27.0421 64.7193 26.8926 65.1732 26.7729C65.3978 26.7062 65.5624 26.6067 65.6413 26.5086C65.723 26.4118 65.7287 26.3379 65.7357 26.3406Z" fill="#375A64"/>
<path d="M65.4251 25.7837C65.4263 25.7848 65.4165 25.7959 65.3967 25.8163C65.3762 25.8358 65.3483 25.8676 65.3059 25.9021C65.2249 25.9745 65.0967 26.0694 64.9233 26.164C64.5785 26.3564 64.0318 26.5157 63.4177 26.5185C62.8036 26.5212 62.2594 26.4045 61.8732 26.316C61.6798 26.2706 61.5241 26.2301 61.4171 26.201C61.31 26.1719 61.2512 26.1541 61.252 26.151C61.253 26.1476 61.3137 26.1591 61.4222 26.1824C61.5393 26.2077 61.6943 26.2414 61.8818 26.2821C62.2694 26.362 62.811 26.472 63.4171 26.4695C64.0228 26.4664 64.5608 26.3152 64.905 26.1336C65.2533 25.9546 65.4167 25.7741 65.4251 25.7837Z" fill="#375A64"/>
<path d="M65.072 25.6051C65.073 25.6084 65.0294 25.6224 64.9497 25.6448C64.8705 25.6678 64.7536 25.6954 64.608 25.7241C64.317 25.7818 63.9073 25.8332 63.4524 25.8313C62.9972 25.8284 62.5879 25.7726 62.2978 25.7117C62.1526 25.6814 62.0361 25.6527 61.9571 25.6287C61.8776 25.6053 61.8342 25.591 61.8352 25.5877C61.8365 25.5845 61.8817 25.5927 61.9622 25.6101C62.0428 25.6283 62.16 25.6519 62.3051 25.6776C62.5955 25.7293 63.0017 25.7791 63.4526 25.782C63.9034 25.7839 64.3101 25.7387 64.601 25.6898C64.7466 25.6657 64.8639 25.6435 64.9448 25.6262C65.0255 25.6096 65.0709 25.6019 65.072 25.6051Z" fill="#375A64"/>
<path d="M62.7699 24.2289C62.7734 24.2303 62.7583 24.2711 62.7282 24.3441C62.6987 24.4173 62.6495 24.5208 62.5824 24.6459C62.4491 24.8961 62.2306 25.2282 61.9317 25.5524C61.6317 25.8761 61.3121 26.1261 61.0668 26.2857C60.9441 26.3658 60.8418 26.4266 60.7685 26.4643C60.6956 26.5027 60.6546 26.5224 60.6528 26.5195C60.6509 26.5165 60.6884 26.4912 60.7576 26.448C60.8274 26.4055 60.9259 26.3407 61.0447 26.2576C61.2828 26.092 61.5953 25.8406 61.8919 25.5202C62.1876 25.1993 62.4085 24.8741 62.5496 24.6296C62.6203 24.5077 62.6743 24.4069 62.7093 24.3364C62.7452 24.2659 62.7664 24.2276 62.7699 24.2289Z" fill="#375A64"/>
<path d="M56.6405 27.6953C56.6391 27.6943 56.6495 27.6799 56.6704 27.6535C56.6915 27.6274 56.722 27.5881 56.7644 27.54C56.8479 27.4429 56.9732 27.3055 57.1407 27.1465C57.308 26.9874 57.521 26.809 57.7812 26.6404C57.912 26.5572 58.0539 26.476 58.2077 26.403C58.3621 26.3309 58.5275 26.2669 58.7009 26.2139C59.3977 26.0019 60.0722 25.9795 60.5454 26.0255C60.7829 26.0472 60.9731 26.0809 61.1029 26.11C61.1678 26.1232 61.2176 26.138 61.2514 26.1464C61.2849 26.1556 61.3023 26.1614 61.3019 26.1629C61.3009 26.1667 61.2288 26.152 61.0984 26.1288C60.9684 26.1054 60.7784 26.0774 60.5423 26.06C60.0718 26.0236 59.4057 26.0512 58.7173 26.2606C58.0257 26.4656 57.5035 26.864 57.1669 27.1712C56.9972 27.326 56.868 27.4594 56.7802 27.5525C56.7392 27.5956 56.7056 27.6311 56.6786 27.6598C56.655 27.684 56.6419 27.6964 56.6405 27.6953Z" fill="#375A64"/>
<path d="M57.9356 25.9608C57.9336 25.9579 57.9807 25.929 58.0675 25.8792C58.1105 25.8535 58.1639 25.8238 58.2288 25.7935C58.2931 25.7628 58.3652 25.7247 58.4493 25.6921C58.5323 25.6569 58.6238 25.6193 58.7249 25.5862C58.8249 25.549 58.935 25.5195 59.0503 25.4863C59.2829 25.4269 59.5437 25.3771 59.8208 25.3503C60.0984 25.3261 60.3644 25.3277 60.605 25.3438C60.725 25.3553 60.8394 25.3643 60.9447 25.3827C61.0511 25.3967 61.1484 25.417 61.2373 25.4363C61.3267 25.4532 61.4052 25.4775 61.4748 25.4959C61.5446 25.5137 61.6032 25.5333 61.6509 25.5503C61.7461 25.5837 61.7981 25.6034 61.7969 25.6067C61.7958 25.6097 61.7414 25.5961 61.6443 25.5687C61.5962 25.5542 61.537 25.5375 61.4668 25.5224C61.397 25.5065 61.3184 25.4848 61.2293 25.4702C61.1406 25.4534 61.044 25.4352 60.9383 25.4231C60.8335 25.4064 60.7203 25.3992 60.6015 25.389C60.3632 25.3756 60.1003 25.3754 59.8259 25.3993C59.5519 25.4258 59.2942 25.4737 59.0632 25.53C58.9487 25.5616 58.8392 25.5894 58.7399 25.6247C58.6389 25.6557 58.5474 25.6912 58.4641 25.7239C58.3797 25.7542 58.3072 25.7899 58.2419 25.818C58.1764 25.8456 58.1217 25.873 58.0773 25.8958C57.988 25.9403 57.9377 25.9637 57.9356 25.9608Z" fill="#375A64"/>
<path d="M66.4985 33.9275C66.5301 33.9118 66.581 33.9292 66.6398 33.9867C66.6975 34.044 66.7635 34.1429 66.795 34.2899C66.81 34.363 66.8159 34.4491 66.7989 34.5428C66.7844 34.6348 66.7395 34.7428 66.6693 34.8329C66.5982 34.9237 66.501 35.0054 66.3744 35.0605C66.2487 35.1146 66.0853 35.1401 65.9269 35.0989C65.7684 35.0596 65.6437 34.9668 65.562 34.866C65.4793 34.7641 65.4328 34.6514 65.4133 34.5403C65.3761 34.3061 65.4664 34.123 65.5581 34.0055C65.6533 33.8867 65.7569 33.8238 65.8343 33.7939C65.9129 33.7646 65.9668 33.7683 65.9889 33.7945C66.0368 33.8489 65.9412 33.9817 65.8867 34.1682C65.8611 34.2594 65.854 34.3659 65.8871 34.4451C65.9185 34.5328 66.0006 34.6135 66.0624 34.6233C66.0929 34.6317 66.1283 34.6298 66.1711 34.6175C66.2133 34.6039 66.2573 34.5782 66.2932 34.5468C66.3636 34.488 66.4039 34.3977 66.4236 34.3044C66.4606 34.1168 66.4312 33.9587 66.4985 33.9275Z" fill="#FF735D"/>
<path d="M55.4138 46.6568L56.7068 52.0704L56.095 55.7036H70.3076L69.3786 38.7424L65.8349 38.4603L57.1777 39.8279L55.4138 46.6568Z" fill="#FF735D"/>
<path d="M59.0294 39.7303C59.0294 39.7303 55.327 39.4126 53.5639 41.7697C52.4848 43.212 50.9698 46.5248 50.9698 46.5248L55.8977 47.3199L59.0294 39.7303Z" fill="#FF735D"/>
<g opacity="0.300003">
<g opacity="0.300003">
<path opacity="0.300003" d="M63.9845 44.8531C65.0244 46.0557 65.5128 47.5804 66.193 48.9905C67.0693 50.807 68.2829 52.4603 69.4897 54.1026C69.58 54.2257 69.7037 54.3638 69.8622 54.346C70.027 54.3274 70.1109 54.1538 70.1533 54.0036C70.4144 53.0769 70.2852 52.0816 69.9426 51.1786C69.5997 50.2755 69.0528 49.453 68.4686 48.6657C67.5484 47.4255 66.5253 46.2523 65.4112 45.1602C65.211 44.9638 64.9962 44.7634 64.7202 44.6814C64.4438 44.5992 64.0901 44.6791 63.9689 44.9255" fill="black"/>
</g>
</g>
<g opacity="0.300003">
<g opacity="0.300003">
<path opacity="0.300003" d="M56.6573 51.1298C56.8977 50.2448 57.1381 49.3595 57.3782 48.4742C57.4264 48.2974 57.4755 48.1178 57.5734 47.9599C57.6962 47.7614 57.8879 47.6098 58.0756 47.4625C58.308 47.2802 58.5486 47.0936 58.8383 47.0108C59.0744 46.9434 59.3338 46.948 59.5546 46.8451C59.8574 46.7035 60.0204 46.3934 60.1441 46.0985C60.2389 45.8728 60.3195 45.6046 60.1813 45.3995C60.0495 45.2041 59.7724 45.15 59.5257 45.1431C58.391 45.1117 57.2673 45.7586 56.7857 46.7203C56.4153 47.4598 56.4155 48.3077 56.4229 49.124C56.4294 49.8519 56.4358 50.5797 56.4421 51.3075" fill="black"/>
</g>
</g>
<path d="M61.2042 51.2335C61.2014 51.2205 61.0101 51.2515 60.6993 51.2739C60.3889 51.2969 59.9571 51.3019 59.4862 51.2452C59.0152 51.1871 58.5992 51.0783 58.3055 50.9817C58.0111 50.8855 57.835 50.8095 57.8287 50.8215C57.826 50.8265 57.8676 50.8505 57.945 50.8896C58.0222 50.9294 58.1379 50.98 58.2838 51.0356C58.5756 51.1471 58.9962 51.2667 59.4751 51.3257C59.9538 51.3835 60.393 51.369 60.7053 51.331C60.8617 51.3124 60.9874 51.2916 61.0728 51.2714C61.1586 51.2523 61.2053 51.2391 61.2042 51.2335Z" fill="#1A2E35"/>
<path d="M67.4047 51.4713C67.3979 51.4501 65.3868 51.9862 62.913 52.6691C60.4387 53.3521 58.4391 53.9233 58.4459 53.9447C58.4524 53.9664 60.4633 53.4302 62.9378 52.7469C65.4114 52.0642 67.4112 51.4928 67.4047 51.4713Z" fill="#1A2E35"/>
<g opacity="0.300003">
<g opacity="0.300003">
<path opacity="0.300003" d="M58.0388 50.9126C58.2525 51.483 58.831 51.8718 59.472 51.9448C60.1133 52.0178 60.7866 51.725 61.14 51.2192C60.0988 51.3405 59.0113 51.282 58.0388 50.9126Z" fill="black"/>
</g>
</g>
<g opacity="0.300003">
<g opacity="0.300003">
<path opacity="0.300003" d="M58.9869 53.7794L59.0387 53.7984C60.3074 54.0107 61.4966 53.7913 62.7133 53.3931C63.9301 52.9953 65.0628 52.4049 66.1863 51.814C63.7864 52.4691 61.3867 53.1242 58.9869 53.7794Z" fill="black"/>
</g>
</g>
<path d="M66.5435 53.6473C66.5553 53.6471 66.5721 53.7795 66.5371 53.9912C66.5029 54.2022 66.4032 54.4898 66.2105 54.7644C66.0166 55.0386 65.773 55.2375 65.5793 55.3498C65.3852 55.4632 65.2486 55.5008 65.2441 55.4906C65.2365 55.4757 65.3602 55.4157 65.5365 55.2917C65.7128 55.1683 65.9362 54.9711 66.1215 54.7096C66.3055 54.4471 66.4114 54.1775 66.463 53.9772C66.5156 53.7766 66.5259 53.6467 66.5435 53.6473Z" fill="#1A2E35"/>
<path d="M67.2775 54.4674C67.2882 54.4726 67.2425 54.5845 67.1205 54.7395C66.9999 54.8942 66.7933 55.085 66.5187 55.2305C66.2437 55.3751 65.9624 55.4422 65.7585 55.4591C65.5537 55.4769 65.4278 55.4554 65.4286 55.4441C65.4247 55.4127 65.9391 55.4282 66.4663 55.1437C66.9991 54.8683 67.2505 54.4479 67.2775 54.4674Z" fill="#1A2E35"/>
<path d="M74.6736 69.849C74.4122 68.8432 72.5153 62.3509 72.1509 61.3736L70.4444 56.7972L70.3292 55.2844L55.8473 55.7036C55.8473 55.7036 53.7857 58.0787 53.0203 60.7731C52.364 63.083 52.0328 66.5868 53.5866 75.7001C54.6094 80.7561 55.7939 86.1381 55.7939 86.1381H64.4687L63.3079 67.5224L66.5273 77.9464L69.4604 86.1335L78.7409 86.0873L74.6736 69.849Z" fill="#375A64"/>
<path d="M55.0743 57.9102C55.0761 57.911 55.0681 57.9347 55.0509 57.9807C55.0313 58.0309 55.0051 58.098 54.9719 58.1834C54.9357 58.2739 54.8918 58.3835 54.8402 58.5119C54.7866 58.6408 54.727 58.7909 54.6719 58.9633C54.4207 59.6432 54.1287 60.6522 53.9156 61.9228C53.6969 63.1933 53.6062 64.7281 53.6449 66.4289C53.6889 68.1303 53.8699 69.9959 54.0974 71.9496C54.5589 75.8576 55.3789 79.3411 55.9779 81.8539C56.2852 83.1056 56.5342 84.1202 56.7078 84.8282C56.7924 85.175 56.8585 85.4466 56.9048 85.637C56.9255 85.7258 56.9416 85.7955 56.9537 85.848C56.9639 85.8957 56.9685 85.9202 56.9666 85.9206C56.9648 85.9212 56.957 85.8973 56.9431 85.8503C56.9285 85.7986 56.9089 85.7296 56.8841 85.6418C56.8331 85.4521 56.7602 85.1821 56.6675 84.837C56.482 84.1376 56.2168 83.1249 55.9045 81.8696C55.2866 79.36 54.4541 75.8757 53.9913 71.9601C53.7641 70.0056 53.5855 68.137 53.5466 66.431C53.5132 64.7256 53.6121 63.1854 53.8412 61.9121C54.0644 60.6379 54.3687 59.6284 54.6328 58.9509C54.6908 58.7786 54.7536 58.6297 54.8108 58.5013C54.8658 58.3743 54.9131 58.2656 54.9518 58.176C54.9893 58.092 55.0188 58.0261 55.0407 57.9767C55.0614 57.932 55.0726 57.9094 55.0743 57.9102Z" fill="#1A2E35"/>
<path d="M57.6365 85.4352C57.6651 85.4287 57.7151 85.5277 57.748 85.6563C57.7812 85.7851 57.7849 85.8945 57.756 85.901C57.7274 85.9073 57.6774 85.8083 57.6444 85.6797C57.6115 85.5509 57.6078 85.4415 57.6365 85.4352Z" fill="#1A2E35"/>
<path d="M57.165 83.5879C57.1936 83.5815 57.2694 83.7833 57.3343 84.0384C57.3992 84.2936 57.4285 84.5055 57.3998 84.5118C57.3714 84.5182 57.2954 84.3166 57.2305 84.0615C57.1658 83.8063 57.1363 83.5942 57.165 83.5879Z" fill="#1A2E35"/>
<path d="M56.7045 81.7375C56.7334 81.7314 56.8077 81.9336 56.8708 82.1892C56.9336 82.4448 56.9615 82.6571 56.9328 82.6632C56.9042 82.6694 56.8298 82.4674 56.7668 82.2116C56.7037 81.9562 56.6759 81.7437 56.7045 81.7375Z" fill="#1A2E35"/>
<path d="M56.2644 79.8829C56.2933 79.8772 56.3649 80.0799 56.4249 80.3361C56.4847 80.5923 56.5101 80.8048 56.4814 80.8107C56.4526 80.8167 56.3807 80.6138 56.3207 80.3576C56.2607 80.1012 56.2355 79.8887 56.2644 79.8829Z" fill="#1A2E35"/>
<path d="M55.8534 78.0229C55.8823 78.0177 55.9509 78.2214 56.0062 78.4784C56.0619 78.7353 56.0834 78.948 56.0545 78.9536C56.0259 78.9593 55.9575 78.7553 55.9018 78.4981C55.8463 78.2412 55.8244 78.0281 55.8534 78.0229Z" fill="#1A2E35"/>
<path d="M55.4812 76.1567C55.5103 76.1519 55.5741 76.3569 55.6239 76.6148C55.6739 76.8724 55.6908 77.0857 55.662 77.0906C55.6329 77.0956 55.569 76.8906 55.5193 76.6323C55.4691 76.3744 55.4521 76.1613 55.4812 76.1567Z" fill="#1A2E35"/>
<path d="M55.1566 74.2832C55.1859 74.2792 55.2443 74.4857 55.2872 74.7442C55.3302 75.0031 55.3413 75.2164 55.3124 75.221C55.2834 75.2254 55.2248 75.0188 55.1818 74.7596C55.1388 74.5007 55.1273 74.2872 55.1566 74.2832Z" fill="#1A2E35"/>
<path d="M54.8891 72.402C54.9184 72.3987 54.9702 72.6068 55.005 72.8667C55.0398 73.1263 55.0443 73.34 55.015 73.3436C54.9862 73.3474 54.9342 73.1393 54.8994 72.8789C54.8645 72.6187 54.8598 72.4053 54.8891 72.402Z" fill="#1A2E35"/>
<path d="M54.6761 70.5145C54.7056 70.5118 54.7521 70.7208 54.7805 70.9816C54.8086 71.2422 54.808 71.4557 54.7787 71.4587C54.7494 71.4614 54.7027 71.2526 54.6743 70.9916C54.6462 70.7308 54.6468 70.5171 54.6761 70.5145Z" fill="#1A2E35"/>
<path d="M54.5012 68.6233C54.5306 68.6214 54.5726 68.8314 54.5949 69.0924C54.6173 69.3536 54.6117 69.5671 54.5822 69.5694C54.553 69.5719 54.5112 69.3618 54.4885 69.1003C54.4662 68.8389 54.4719 68.6255 54.5012 68.6233Z" fill="#1A2E35"/>
<path d="M54.3936 66.7281C54.4231 66.7274 54.4566 66.9387 54.4685 67.2001C54.4806 67.4616 54.4663 67.6747 54.437 67.6763C54.4075 67.6778 54.3739 67.4666 54.362 67.2043C54.35 66.9422 54.3641 66.7289 54.3936 66.7281Z" fill="#1A2E35"/>
<path d="M54.3874 64.8303C54.4169 64.8311 54.438 65.0438 54.4347 65.3053C54.4317 65.5669 54.405 65.779 54.3756 65.7792C54.3461 65.7794 54.3248 65.5667 54.3283 65.3042C54.3315 65.0416 54.3579 64.8293 54.3874 64.8303Z" fill="#1A2E35"/>
<path d="M54.519 62.9358C54.5482 62.9389 54.553 63.1525 54.5294 63.413C54.5061 63.6736 54.4631 63.8832 54.4336 63.8817C54.4041 63.8799 54.3996 63.6665 54.4231 63.4043C54.4467 63.1428 54.4897 62.9328 54.519 62.9358Z" fill="#1A2E35"/>
<path d="M54.8245 61.0601C54.8534 61.0656 54.8372 61.2789 54.7887 61.5361C54.7401 61.7934 54.6769 61.9984 54.648 61.9946C54.6187 61.9906 54.6347 61.7775 54.6838 61.5186C54.7326 61.2597 54.7956 61.0545 54.8245 61.0601Z" fill="#1A2E35"/>
<path d="M55.335 59.224C55.3631 59.2326 55.3225 59.4428 55.2451 59.6936C55.1673 59.9445 55.0811 60.1422 55.0525 60.1355C55.024 60.1288 55.0643 59.9184 55.1428 59.6659C55.2208 59.4131 55.307 59.2154 55.335 59.224Z" fill="#1A2E35"/>
<path d="M55.8636 57.8904C55.8909 57.9013 55.8698 58.009 55.817 58.1312C55.7641 58.2535 55.6988 58.3443 55.6714 58.3343C55.6439 58.3246 55.6648 58.2167 55.7181 58.0939C55.7715 57.9706 55.8366 57.8796 55.8636 57.8904Z" fill="#1A2E35"/>
<path d="M64.2494 68.5318C64.2238 68.5453 64.0788 68.3778 63.9255 68.1578C63.7721 67.9373 63.6671 67.7454 63.6906 67.7292C63.7144 67.7127 63.8595 67.88 64.0147 68.1032C64.1699 68.3262 64.275 68.5182 64.2494 68.5318Z" fill="#1A2E35"/>
<path d="M65.1286 70.2607C65.1012 70.2707 64.9886 70.0823 64.8774 69.8405C64.7662 69.5983 64.6978 69.3925 64.7242 69.3804C64.7509 69.3687 64.8633 69.5567 64.9755 69.801C65.0875 70.045 65.1563 70.2508 65.1286 70.2607Z" fill="#1A2E35"/>
<path d="M65.7903 72.0736C65.762 72.0816 65.6695 71.8843 65.5837 71.6327C65.4977 71.3813 65.4506 71.1701 65.4786 71.1611C65.5063 71.1521 65.5988 71.3497 65.685 71.6022C65.7714 71.8546 65.8185 72.0657 65.7903 72.0736Z" fill="#1A2E35"/>
<path d="M66.3663 73.9129C66.338 73.9207 66.2512 73.7209 66.1726 73.4668C66.0938 73.2127 66.0528 73.0004 66.0811 72.9927C66.1093 72.985 66.1962 73.1847 66.275 73.439C66.3536 73.6931 66.3948 73.9054 66.3663 73.9129Z" fill="#1A2E35"/>
<path d="M66.9365 75.7532C66.9083 75.7609 66.8215 75.5612 66.7428 75.3072C66.664 75.0531 66.6233 74.8408 66.6513 74.8331C66.6796 74.8254 66.7664 75.0251 66.8452 75.2792C66.9238 75.5335 66.9648 75.7456 66.9365 75.7532Z" fill="#1A2E35"/>
<path d="M67.5068 77.5936C67.4786 77.6013 67.3918 77.4016 67.3132 77.1475C67.2343 76.8935 67.1936 76.6811 67.2216 76.6735C67.2499 76.6658 67.3367 76.8655 67.4155 77.1196C67.4942 77.3738 67.5351 77.586 67.5068 77.5936Z" fill="#1A2E35"/>
<path d="M68.0771 79.434C68.0488 79.4417 67.962 79.2418 67.8834 78.9879C67.8046 78.7337 67.7638 78.5215 67.7919 78.5139C67.8201 78.5062 67.9069 78.7059 67.9858 78.96C68.0644 79.2142 68.1054 79.4263 68.0771 79.434Z" fill="#1A2E35"/>
<path d="M68.6474 81.2744C68.6192 81.2821 68.5323 81.0822 68.4537 80.8281C68.3749 80.574 68.3341 80.3617 68.3622 80.3541C68.3904 80.3464 68.4773 80.5463 68.5561 80.8003C68.6347 81.0546 68.6757 81.2667 68.6474 81.2744Z" fill="#1A2E35"/>
<path d="M69.2177 83.1148C69.1894 83.1224 69.1026 82.9226 69.024 82.6685C68.9451 82.4144 68.9044 82.2021 68.9324 82.1944C68.9607 82.1868 69.0475 82.3866 69.1263 82.6407C69.205 82.8948 69.2459 83.1071 69.2177 83.1148Z" fill="#1A2E35"/>
<path d="M69.7879 84.955C69.7597 84.9627 69.6728 84.763 69.5942 84.5089C69.5154 84.2548 69.4746 84.0425 69.5027 84.0348C69.5309 84.0272 69.6178 84.2268 69.6966 84.4811C69.7752 84.7352 69.8162 84.9473 69.7879 84.955Z" fill="#1A2E35"/>
<path d="M70.1809 86.2231C70.1526 86.2308 70.1055 86.1591 70.0758 86.0631C70.0461 85.967 70.0449 85.883 70.0732 85.8754C70.1012 85.8677 70.1485 85.9394 70.1782 86.0354C70.2081 86.1314 70.2093 86.2155 70.1809 86.2231Z" fill="#1A2E35"/>
<path d="M64.768 55.5402C64.7717 55.54 64.7764 55.5784 64.7818 55.6514C64.7869 55.7353 64.793 55.8409 64.8008 55.9708C64.8143 56.2483 64.8286 56.6501 64.8336 57.1469C64.8475 58.1401 64.8211 59.5138 64.7076 61.0266C64.5782 62.7776 64.3503 64.3267 64.1806 65.3005L64.1759 65.3259L64.1493 65.3265C63.7592 65.3346 63.4457 65.3411 63.2146 65.3461C63.1151 65.3464 63.0332 65.3466 62.9664 65.347C62.9101 65.3462 62.8808 65.3443 62.8806 65.3415C62.8806 65.3386 62.9097 65.3346 62.9656 65.33C63.0323 65.3252 63.1138 65.3196 63.2131 65.3129C63.4439 65.301 63.7572 65.2849 64.1468 65.265L64.1153 65.2913C64.2605 64.3148 64.4722 62.7671 64.6014 61.0197C64.7144 59.5098 64.7527 58.1391 64.7582 57.1471C64.7586 56.661 64.759 56.2628 64.7592 55.9717C64.7596 55.8418 64.7601 55.7359 64.7605 55.6519C64.7619 55.5787 64.7644 55.5402 64.768 55.5402Z" fill="#1A2E35"/>
<path d="M63.055 56.1306C63.0612 56.1379 63.0258 56.1643 62.9836 56.2249C62.941 56.2843 62.898 56.3836 62.8962 56.5104C62.8962 56.6348 62.9414 56.7934 63.0727 56.8979C63.2002 57.0057 63.416 57.0184 63.5958 56.9329C63.776 56.8486 63.8939 56.6786 63.8771 56.5185C63.865 56.3577 63.7559 56.2293 63.6492 56.1553C63.5391 56.0812 63.4281 56.0547 63.3517 56.0513C63.2747 56.0469 63.2309 56.058 63.2285 56.0488C63.2266 56.045 63.267 56.0204 63.3509 56.0124C63.4342 56.0036 63.5618 56.0212 63.6916 56.0969C63.8169 56.1726 63.9531 56.3123 63.9748 56.5114C64.0018 56.712 63.8558 56.9251 63.6437 57.022C63.4342 57.1238 63.1646 57.1069 63.0082 56.9672C62.8505 56.8325 62.8114 56.6468 62.8206 56.5079C62.8329 56.365 62.8937 56.2586 62.9506 56.2011C63.0077 56.1427 63.0526 56.127 63.055 56.1306Z" fill="#1A2E35"/>
<path d="M60.1579 56.0488C60.164 56.0498 60.1585 56.1293 60.1321 56.2709C60.1059 56.4127 60.0524 56.616 59.957 56.8584C59.7703 57.3407 59.3763 57.9817 58.7236 58.491C58.0708 59.0005 57.3259 59.2481 56.7852 59.3332C56.5135 59.3774 56.2901 59.3901 56.1365 59.3887C55.9826 59.3876 55.8982 59.3784 55.8982 59.3724C55.8976 59.3529 56.2391 59.3686 56.7709 59.2638C57.2987 59.1626 58.0196 58.9106 58.6554 58.4145C59.291 57.9184 59.6853 57.3003 59.887 56.8326C60.0926 56.3621 60.1372 56.0448 60.1579 56.0488Z" fill="#1A2E35"/>
<path d="M71.4771 59.6662C71.4742 59.6717 71.3966 59.6451 71.2615 59.5843C71.1274 59.5221 70.9382 59.4213 70.7212 59.2737C70.282 58.9831 69.7594 58.4845 69.2434 57.897C68.7211 57.3148 68.2606 56.7724 67.9836 56.3428C67.8425 56.1301 67.7438 55.9492 67.6824 55.8216C67.6206 55.6941 67.5942 55.6207 67.5999 55.6181C67.6169 55.6106 67.752 55.8926 68.0471 56.3048C68.3372 56.72 68.8026 57.2508 69.3251 57.833C69.8403 58.4189 70.3456 58.9168 70.7664 59.2174C71.1831 59.5226 71.4861 59.6497 71.4771 59.6662Z" fill="#1A2E35"/>
<path d="M62.8261 80.8983C62.8259 80.905 62.7532 80.9088 62.6212 80.9098C62.4891 80.9119 62.2983 80.9033 62.0632 80.8822C61.5935 80.841 60.9469 80.7276 60.2677 80.4967C59.5888 80.2642 59.0159 79.9613 58.6279 79.7101C58.4335 79.5847 58.2816 79.4761 58.1821 79.395C58.0818 79.3148 58.0285 79.2682 58.0332 79.2628C58.0445 79.2496 58.2738 79.4175 58.6692 79.651C59.0642 79.885 59.6344 80.1736 60.3042 80.403C60.9743 80.6308 61.6093 80.7534 62.0722 80.8122C62.5356 80.8716 62.8265 80.881 62.8261 80.8983Z" fill="#1A2E35"/>
<path d="M74.5482 79.6058C74.5603 79.6123 74.4479 79.82 74.2428 80.1437C74.038 80.4673 73.7372 80.905 73.3766 81.3698C73.0157 81.8345 72.6637 82.2371 72.3979 82.5195C72.1324 82.8022 71.9561 82.9664 71.9458 82.9578C71.9339 82.948 72.0904 82.7675 72.3402 82.4743C72.5902 82.1811 72.9311 81.7736 73.2902 81.311C73.6492 80.8484 73.9583 80.4192 74.1789 80.1061C74.3994 79.7934 74.5349 79.5983 74.5482 79.6058Z" fill="#1A2E35"/>
<path d="M67.0615 42.5999C66.9991 41.8945 67.8611 41.0664 68.1068 40.397C68.6029 39.0459 68.5519 38.4602 68.3863 35.7994L65.8672 35.2968C65.7902 36.1847 65.9262 35.8373 65.8365 36.7975C65.7466 37.7575 65.4864 38.7196 64.9374 39.5351C64.5449 40.1182 63.9945 40.6588 63.92 41.3444C63.8127 42.3358 64.7433 43.1906 64.8023 44.1857C64.8842 45.5669 63.2885 46.7058 63.4814 48.0773C63.524 48.3804 63.6769 48.6922 63.9665 48.8334C64.1753 48.9355 64.422 48.9349 64.6579 48.9321C65.1753 48.9255 65.6927 48.919 66.2106 48.9123C66.3768 48.9102 66.5609 48.9016 66.6799 48.7928C66.8725 48.6163 66.7712 48.3193 66.7308 48.0698C66.557 46.9917 67.7909 46.1067 67.8203 45.0166C67.8433 44.1713 67.1361 43.4426 67.0615 42.5999Z" fill="#1A2E35"/>
<path d="M65.4387 45.9528C65.4387 45.9528 69.7805 54.9987 72.3027 55.2756C73.5748 55.4155 74.3496 54.7649 74.6225 53.5305C74.8955 52.2961 73.9858 44.2085 73.9858 44.2085L69.6192 45.3442L69.9497 46.9107L67.3358 44.4733L65.4387 45.9528Z" fill="#FFBF9D"/>
<path d="M69.3786 38.7423C69.3786 38.7423 71.8221 38.9623 72.7318 40.8352C73.6414 42.7081 74.9018 44.8206 74.9018 44.8206L69.5281 45.9527C69.5281 45.9527 68.7766 42.17 68.7193 40.8352C68.6566 39.373 68.4942 38.7002 69.3786 38.7423Z" fill="#FF735D"/>
<path d="M73.6723 50.3514C73.6743 50.3493 73.6532 50.3274 73.6117 50.2878C73.5623 50.2426 73.5009 50.186 73.4262 50.1172C73.2554 49.9618 73.0234 49.7507 72.7406 49.4935C72.1624 48.9664 71.3661 48.2361 70.492 47.4241C69.6253 46.612 68.8413 45.8771 68.2629 45.3352C67.9854 45.0731 67.7575 44.8581 67.5898 44.6998C67.5151 44.6308 67.4539 44.5745 67.4047 44.5289C67.3615 44.4906 67.3378 44.4712 67.3357 44.4733C67.3335 44.4753 67.3529 44.4982 67.3918 44.5404C67.4381 44.5887 67.4955 44.6485 67.5655 44.7217C67.717 44.8784 67.9406 45.1015 68.2189 45.3753C68.776 45.9225 69.5559 46.6693 70.4308 47.4815C71.3053 48.294 72.1088 49.0183 72.6985 49.5351C72.9931 49.7936 73.2345 49.9996 73.4032 50.1404C73.4823 50.2046 73.5476 50.2575 73.5998 50.2998C73.6452 50.3357 73.6702 50.3535 73.6723 50.3514Z" fill="#FF9A6C"/>
<path d="M61.6016 38.9281L63.3006 39.5472C63.3006 39.5472 64.2341 39.5558 64.3545 39.8377C64.4751 40.1194 64.5955 40.4012 64.5955 40.4012C64.5955 40.4012 65.1676 40.5365 65.2882 40.8353C65.4086 41.134 66.4022 43.163 66.4022 43.163L67.3357 44.4733L65.4387 45.9528C65.4387 45.9528 65.0472 45.4737 64.6557 45.2202C64.2642 44.9665 62.638 43.6905 62.6081 43.3422C62.578 42.994 61.699 41.0428 61.6894 40.8353C61.6798 40.6277 61.6568 40.1759 61.8765 40.2886C62.096 40.4012 62.3972 40.9648 62.3972 40.9648L62.1863 40.2041C62.1863 40.2041 62.0567 40.1332 61.8765 39.9222C61.6513 39.6587 61.6214 39.3594 61.6214 39.3594L61.6016 38.9281Z" fill="#FFBF9D"/>
<path d="M65.1696 43.5181C65.1747 43.5141 65.1119 43.4305 64.9947 43.2845C64.8655 43.1274 64.6968 42.9222 64.4949 42.6763L64.4853 42.6646H64.4687C64.272 42.6629 64.0543 42.661 63.8215 42.6593L63.798 42.6591L63.7857 42.6804C63.7191 42.7972 63.619 42.9239 63.481 42.9793C63.4161 43.0073 63.3309 43.0027 63.2451 43.0075C63.1608 43.0096 63.0723 43.0088 62.99 43.0002L63.0228 43.0582C63.0596 42.9891 63.0991 42.9155 63.1387 42.8413C63.283 42.57 63.4218 42.3086 63.5521 42.0635L63.5152 42.0848C63.9442 42.0814 64.3318 42.0783 64.659 42.0758L64.6448 42.0727C64.901 42.1845 65.1141 42.2774 65.2787 42.3492C65.4294 42.4129 65.514 42.4456 65.5167 42.4405C65.5195 42.4353 65.4401 42.3926 65.2941 42.3199C65.1325 42.2419 64.9239 42.141 64.6729 42.0197L64.6667 42.0168L64.659 42.0166C64.3318 42.0139 63.9442 42.0109 63.5152 42.0076L63.4898 42.0074L63.4781 42.0289C63.3469 42.2734 63.2066 42.5342 63.0611 42.8049C63.0215 42.8795 62.9822 42.953 62.9454 43.022L62.9177 43.0739L62.9779 43.0803C63.0723 43.09 63.1593 43.0898 63.2474 43.0875C63.2912 43.0852 63.3344 43.0829 63.3774 43.0808C63.4212 43.0785 63.4714 43.069 63.5129 43.0519C63.6841 42.9789 63.7832 42.8434 63.8571 42.7118L63.8215 42.7329C64.0543 42.7311 64.272 42.7292 64.4687 42.7275L64.4423 42.7158C64.6534 42.9546 64.8301 43.154 64.9653 43.3068C65.0912 43.4461 65.1643 43.5221 65.1696 43.5181Z" fill="#FF9A6C"/>
<path d="M64.5955 41.09C64.5955 41.0838 64.4952 41.0781 64.315 41.0729C64.1182 41.0694 63.8623 41.0649 63.556 41.0595L63.4247 41.0572L63.5414 41.1172C63.6995 41.1986 63.8854 41.2923 64.0369 41.428C64.074 41.4628 64.1008 41.5027 64.0853 41.5266C64.072 41.5592 64.0224 41.592 63.9763 41.6175C63.8787 41.6688 63.7642 41.7085 63.6489 41.7405L63.6604 41.739C63.4513 41.7265 63.2251 41.6489 63.0199 41.5404C62.8455 41.449 62.7947 41.2404 62.775 41.0606C62.7583 40.8753 62.7705 40.6916 62.7986 40.5235L62.7621 40.5542C63.2902 40.5151 63.7435 40.4814 64.0847 40.4561C64.2345 40.4425 64.3598 40.431 64.4616 40.4218C64.5488 40.4124 64.5957 40.4055 64.5955 40.4013C64.5951 40.3971 64.5478 40.3961 64.4598 40.3978C64.3578 40.4015 64.2321 40.4059 64.0814 40.4111C63.7396 40.4289 63.2857 40.4523 62.7568 40.4798L62.7253 40.4814L62.7202 40.5103C62.6886 40.6864 62.6743 40.8721 62.6905 41.0677C62.6993 41.1655 62.7189 41.2655 62.7593 41.363C62.7984 41.4596 62.8713 41.5569 62.9771 41.6112C63.1938 41.7242 63.4221 41.8051 63.6604 41.8181L63.6655 41.8183L63.6717 41.8166C63.7943 41.7815 63.9094 41.7411 64.0173 41.6832C64.0691 41.6512 64.126 41.6225 64.1588 41.5548C64.1778 41.5209 64.1659 41.4743 64.1502 41.4473C64.1332 41.4197 64.1131 41.3975 64.0922 41.3778C63.9206 41.2295 63.7364 41.144 63.5705 41.0626L63.556 41.1204C63.8623 41.1149 64.1182 41.1105 64.315 41.1068C64.4952 41.1018 64.5955 41.0961 64.5955 41.09Z" fill="#FF9A6C"/>
<path d="M67.3357 44.4734C67.3367 44.4726 67.3322 44.4646 67.3228 44.4494C67.3107 44.431 67.2966 44.4094 67.2788 44.3822C67.2358 44.3191 67.177 44.2333 67.1021 44.1237C66.9416 43.8941 66.7122 43.5657 66.4223 43.1505L66.4241 43.1535C66.2429 42.7695 66.0279 42.3142 65.7851 41.7997C65.6629 41.542 65.5335 41.2695 65.3981 40.984C65.3623 40.9106 65.334 40.8445 65.291 40.7627C65.2437 40.6872 65.1753 40.628 65.102 40.5786C64.953 40.4806 64.7849 40.4143 64.6049 40.3664L64.6311 40.3879C64.5797 40.2668 64.5273 40.1434 64.4739 40.0177C64.4472 39.9549 64.4204 39.8914 64.3932 39.8276C64.3582 39.75 64.2863 39.7025 64.2181 39.667C64.0764 39.6009 63.9243 39.5691 63.7707 39.5465C63.6166 39.5245 63.4609 39.5118 63.3012 39.5084L63.3158 39.5111C62.7693 39.3114 62.2015 39.1039 61.6173 38.8904L61.5553 38.8678L61.5584 38.9299C61.5662 39.0788 61.5698 39.2267 61.5815 39.3875C61.6089 39.5465 61.6702 39.7006 61.7621 39.8406C61.8735 39.9968 61.9976 40.1296 62.1646 40.239L62.1446 40.2141C62.2164 40.4734 62.2873 40.728 62.3557 40.975L62.4355 40.9469C62.3663 40.8204 62.292 40.6993 62.2105 40.5818C62.1253 40.4669 62.0455 40.349 61.9108 40.2624C61.8776 40.2434 61.8286 40.2202 61.7721 40.2396C61.7187 40.2601 61.6953 40.3038 61.6816 40.3379C61.6538 40.4097 61.6493 40.4789 61.6444 40.5473C61.6411 40.6155 61.6417 40.6828 61.6442 40.7493C61.6464 40.7832 61.6452 40.8143 61.6503 40.8497C61.6564 40.888 61.6659 40.9218 61.6763 40.9526C61.8512 41.4548 62.0563 41.9161 62.2314 42.3635C62.3203 42.5861 62.4063 42.8032 62.4806 43.0157C62.5152 43.1213 62.5547 43.2284 62.5705 43.329C62.5907 43.4521 62.6698 43.5402 62.7351 43.6259C63.022 43.9562 63.3348 44.2155 63.6161 44.4538C63.9001 44.6897 64.1643 44.893 64.4004 45.0659C64.5173 45.1529 64.6344 45.228 64.7353 45.2977C64.8357 45.37 64.9219 45.443 64.9972 45.5104C65.1473 45.6461 65.2548 45.7595 65.3273 45.8362C65.3609 45.8722 65.3879 45.9009 65.4094 45.9239C65.4278 45.9437 65.4374 45.9536 65.4387 45.9529C65.4397 45.9521 65.4321 45.9406 65.4155 45.9193C65.3957 45.895 65.3707 45.8645 65.3398 45.8266C65.2708 45.7465 65.1665 45.6296 65.0191 45.4897C64.9446 45.42 64.8594 45.3449 64.7587 45.2694C64.6555 45.1956 64.5441 45.1218 64.4282 45.0331C64.1956 44.8578 63.9347 44.652 63.6542 44.414C63.3768 44.1746 63.0658 43.9116 62.7887 43.5873C62.7249 43.5042 62.6544 43.4183 62.6397 43.322C62.6225 43.2072 62.5838 43.1041 62.5492 42.9951C62.4755 42.7801 62.3907 42.5622 62.3029 42.3386C62.13 41.8913 61.9251 41.424 61.7555 40.9315C61.7445 40.9001 61.7371 40.8704 61.7328 40.8434C61.7279 40.8141 61.7289 40.7788 61.7271 40.7468C61.725 40.6815 61.7242 40.6161 61.7277 40.5512C61.7338 40.4329 61.7615 40.2482 61.8669 40.3298C61.9736 40.3973 62.0592 40.5148 62.1391 40.6257C62.2183 40.7395 62.2918 40.8601 62.3588 40.9829L62.5369 41.3092L62.4388 40.9547C62.3706 40.7077 62.3002 40.4532 62.2285 40.194L62.2244 40.1794L62.2083 40.1691C62.0678 40.0777 61.9343 39.9389 61.8358 39.7979C61.7504 39.6684 61.6925 39.5214 61.6673 39.3756C61.6571 39.2279 61.6524 39.0719 61.6448 38.9264L61.586 38.9657C62.1704 39.1782 62.739 39.3848 63.2857 39.5835L63.292 39.5858L63.3002 39.5862C63.6063 39.5971 63.9233 39.6205 64.1807 39.7335C64.2415 39.7648 64.2957 39.8033 64.3195 39.8552C64.3467 39.919 64.3739 39.9824 64.401 40.0451C64.455 40.1704 64.5078 40.2938 64.5599 40.4145L64.567 40.431L64.5861 40.436C64.7554 40.4803 64.9212 40.5448 65.0588 40.6349C65.127 40.6803 65.1885 40.7338 65.2282 40.797C65.2615 40.8585 65.2978 40.9388 65.3318 41.0078C65.4696 41.2929 65.601 41.5652 65.7255 41.8227C65.9745 42.3355 66.1946 42.7896 66.3803 43.1723L66.3811 43.174L66.3822 43.1756C66.6803 43.5856 66.9158 43.9102 67.0808 44.1369C67.1602 44.244 67.2223 44.3276 67.2679 44.3891C67.2878 44.4147 67.3038 44.4356 67.3171 44.4529C67.3285 44.4671 67.3349 44.474 67.3357 44.4734Z" fill="#FF9A6C"/>
<path d="M69.8965 46.8641C69.92 46.8605 69.8426 46.3034 69.7233 45.6201C69.6041 44.9362 69.4882 44.3852 69.4647 44.3888C69.4409 44.3924 69.5183 44.9495 69.6377 45.6332C69.7569 46.3167 69.873 46.8679 69.8965 46.8641Z" fill="#1A2E35"/>
<path d="M57.7337 38.7976L58.2632 45.0533C58.282 45.2759 58.4884 45.4432 58.7265 45.4287L62.4527 45.2024C62.6975 45.1874 62.8814 44.9864 62.8589 44.7576L62.2501 38.5063C62.2287 38.2859 62.0231 38.1215 61.787 38.1359L58.1405 38.3576C57.8977 38.3724 57.7144 38.5703 57.7337 38.7976Z" fill="#1A2E35"/>
<path d="M52.4014 46.7612C52.4014 46.7612 51.2882 53.7993 51.332 54.7449C51.376 55.6908 52.5184 57.7876 54.0561 57.993C55.594 58.1986 57.0436 56.883 57.0876 55.1561C57.1317 53.4293 57.3594 47.9678 57.3594 47.9678L56.2115 47.3761L52.4014 46.7612Z" fill="#FFBF9D"/>
<path d="M55.1402 47.1768C55.1373 47.1758 55.1236 47.2006 55.1005 47.2488C55.0741 47.3058 55.0415 47.3757 55.002 47.4604C54.9197 47.6453 54.7948 47.9107 54.6351 48.2362C54.3197 48.8893 53.8453 49.7744 53.356 50.7692C52.8656 51.7639 52.4927 52.6967 52.2906 53.3904C52.2343 53.5621 52.1999 53.7219 52.1631 53.8604C52.1254 53.9988 52.1018 54.1195 52.0836 54.2185C52.067 54.3101 52.0535 54.3852 52.0423 54.4466C52.0339 54.4989 52.0306 54.5265 52.0337 54.5269C52.0367 54.5274 52.0455 54.5008 52.0595 54.4496C52.0748 54.3893 52.0937 54.3151 52.1166 54.2251C52.1399 54.1273 52.1682 54.0078 52.21 53.8711C52.2515 53.7343 52.2896 53.5762 52.3496 53.4065C52.5658 52.7199 52.9454 51.7955 53.435 50.803C53.9233 49.8102 54.3896 48.9199 54.6914 48.2596C54.8439 47.9306 54.9604 47.661 55.0335 47.4723C55.0669 47.3851 55.0941 47.3132 55.1166 47.2546C55.1349 47.2046 55.1431 47.1778 55.1402 47.1768Z" fill="#FF9A6C"/>
<path d="M58.7382 40.9459C58.7382 40.9459 57.5857 41.6092 57.2454 41.7823C56.9053 41.9553 56.9491 43.2411 56.9491 43.2411L55.0107 47.4586L57.3479 48.2423C57.3479 48.2423 58.1799 46.7668 58.4192 46.5802C58.6584 46.3937 58.9774 46.319 58.9774 46.319C58.9774 46.319 59.097 46.7295 59.4559 46.5428C59.8148 46.3562 60.2135 45.9086 60.2135 45.9086C60.2135 45.9086 60.5325 46.0952 60.6521 45.8712C60.7716 45.6474 60.9709 45.1622 60.9709 45.1622C60.9709 45.1622 60.2931 44.3415 60.014 44.3415C59.735 44.3415 58.2994 44.4159 58.2994 44.4159C58.2994 44.4159 58.3793 44.304 58.7779 44.1549C59.1768 44.0056 61.5509 43.352 61.6625 43.3116C61.8294 43.251 62.0182 42.8427 61.4997 42.8055C60.9815 42.7681 58.0609 43.2564 58.0609 43.2564C58.0609 43.2564 57.9008 42.5503 58.0206 42.401C58.1401 42.2517 59.1768 41.6175 58.7382 40.9459Z" fill="#FFBF9D"/>
<path d="M60.2165 45.875C60.2242 45.8744 60.2431 45.7588 60.2068 45.568C60.1853 45.4745 60.1405 45.3576 60.0312 45.266C59.9192 45.1706 59.7523 45.1516 59.6028 45.1443C59.2953 45.1259 59.016 45.1445 58.817 45.1715C58.6175 45.1984 58.4976 45.2302 58.4996 45.2403C58.5035 45.2652 58.9931 45.1888 59.5975 45.2254C59.748 45.2325 59.8882 45.2493 59.9794 45.3231C60.0723 45.3952 60.1204 45.4967 60.1473 45.582C60.1962 45.7575 60.2009 45.8769 60.2165 45.875Z" fill="#FF9A6C"/>
<path d="M59.7542 46.0099C59.7386 45.9911 59.5542 46.1072 59.306 46.2074C59.0585 46.3094 58.842 46.3571 58.8461 46.3805C58.8484 46.4014 59.081 46.3887 59.3406 46.282C59.6008 46.1766 59.769 46.0258 59.7542 46.0099Z" fill="#FF9A6C"/>
<path d="M58.1942 43.241C58.1911 43.2201 57.9718 43.2588 57.782 43.4322C57.5907 43.6041 57.542 43.8078 57.5643 43.8114C57.5883 43.8199 57.6679 43.6461 57.8424 43.4907C58.0144 43.3324 58.2026 43.2636 58.1942 43.241Z" fill="#FF9A6C"/>
<path d="M88.2168 86.138C88.2168 86.1656 68.4673 86.1878 44.1105 86.1878C19.7452 86.1878 0 86.1656 0 86.138C0 86.1104 19.7452 86.088 44.1105 86.088C68.4673 86.088 88.2168 86.1104 88.2168 86.138Z" fill="#1A2E35"/>
</svg>
